{"glyphs":{"0":{"ha":1657,"x_min":0,"x_max":0,"o":"m 1599 474 b 829 -19 1599 131 1350 -19 b 58 474 307 -19 58 131 b 829 967 58 817 307 967 b 1599 474 1350 967 1599 817 m 1317 474 b 829 725 1317 665 1179 725 b 340 474 478 725 340 665 b 829 222 340 282 478 222 b 1317 474 1179 222 1317 282 "},"1":{"ha":785,"x_min":0,"x_max":0,"o":"m 385 0 l 385 510 b 392 674 385 565 388 626 l 42 568 l 42 808 l 404 947 l 667 947 l 667 0 "},"2":{"ha":1444,"x_min":0,"x_max":0,"o":"m 1094 622 b 819 726 1094 704 1007 726 b 99 647 579 726 304 688 l 51 883 b 769 967 267 931 540 967 b 1376 669 1186 967 1376 882 b 975 328 1376 478 1246 401 l 622 221 b 965 232 738 228 863 232 l 1382 232 l 1382 0 l 83 0 l 83 258 l 963 511 b 1094 622 1054 543 1094 565 "},"3":{"ha":1453,"x_min":0,"x_max":0,"o":"m 1394 243 b 753 -19 1394 67 1265 -19 b 50 40 485 -19 244 1 l 88 275 b 763 222 258 251 517 222 b 1113 303 1042 222 1113 235 b 950 386 1113 367 1068 386 l 278 386 l 278 569 l 929 569 b 1093 643 1049 569 1093 585 b 763 726 1093 711 1026 726 b 97 683 511 726 264 706 l 60 918 b 722 967 261 947 513 967 b 1375 688 1206 967 1375 886 b 1185 469 1375 571 1308 510 b 1394 243 1306 433 1394 368 "},"4":{"ha":1578,"x_min":0,"x_max":0,"o":"m 1524 193 l 1308 193 l 1308 0 l 1026 0 l 1026 193 l 26 193 l 26 397 l 1026 917 l 1308 917 l 1308 404 l 1524 404 m 588 475 l 369 388 b 665 404 457 396 586 404 l 1026 404 l 1026 696 "},"5":{"ha":1447,"x_min":0,"x_max":0,"o":"m 411 726 l 385 590 l 944 583 b 1388 299 1239 581 1388 517 b 718 -19 1388 69 1236 -19 b 44 38 467 -19 236 0 l 93 253 b 757 203 265 222 508 203 b 1115 296 1053 203 1115 225 b 908 386 1115 365 1060 385 l 110 396 l 94 411 l 196 947 l 1321 947 l 1321 726 "},"6":{"ha":1533,"x_min":0,"x_max":0,"o":"m 1475 274 b 813 -19 1475 51 1261 -19 b 57 482 256 -19 57 147 b 821 967 57 840 396 967 b 1425 896 1047 967 1268 933 l 1381 668 b 821 735 1238 701 1067 735 b 333 532 500 735 360 679 b 839 592 467 564 629 592 b 1475 274 1207 592 1475 531 m 828 400 b 350 353 653 400 493 381 b 815 211 396 251 524 211 b 1192 304 1114 211 1192 228 b 828 400 1192 385 1114 400 "},"7":{"ha":1433,"x_min":0,"x_max":0,"o":"m 333 0 l 839 543 b 1079 724 915 624 988 686 b 772 710 993 714 875 710 l 60 710 l 60 947 l 1389 947 l 1389 736 l 686 0 "},"8":{"ha":1569,"x_min":0,"x_max":0,"o":"m 785 967 b 1465 701 1314 967 1465 853 b 1319 486 1465 594 1408 526 b 1488 263 1426 444 1488 375 b 785 -19 1488 65 1308 -19 b 83 263 261 -19 83 65 b 253 485 83 375 140 444 b 104 701 160 526 104 594 b 785 967 104 853 256 967 m 785 736 b 376 649 443 736 376 710 b 785 564 376 585 443 564 b 1193 649 1126 564 1193 585 b 785 736 1193 710 1126 736 m 785 222 b 1215 313 1140 222 1215 239 b 785 403 1215 386 1135 403 b 354 313 436 403 354 386 b 785 222 354 239 429 222 "},"9":{"ha":1533,"x_min":0,"x_max":0,"o":"m 1475 464 b 711 -19 1475 106 1136 -19 b 107 50 485 -19 263 13 l 151 279 b 711 213 294 244 465 213 b 1199 414 1033 213 1172 268 b 693 354 1065 383 903 354 b 57 671 325 354 57 414 b 719 967 57 889 271 967 b 1475 464 1276 967 1475 799 m 704 546 b 1182 593 879 546 1039 565 b 717 735 1136 694 1008 735 b 340 640 418 735 340 713 b 704 546 340 560 418 546 "},"\r":{"ha":0,"x_min":0,"x_max":0,"o":""}," ":{"ha":382,"x_min":0,"x_max":0,"o":""}," ":{"ha":382,"x_min":0,"x_max":0,"o":""},"A":{"ha":1578,"x_min":0,"x_max":0,"o":"m 1138 183 l 438 183 l 322 0 l -17 0 l 601 947 l 976 947 l 1593 0 l 1251 0 m 1014 379 l 788 743 l 560 379 "},"B":{"ha":1500,"x_min":0,"x_max":0,"o":"m 75 0 l 75 947 l 1129 947 b 1422 715 1319 947 1422 878 b 1263 499 1422 597 1368 526 b 1457 253 1390 469 1457 396 b 1131 0 1457 72 1347 0 m 353 735 l 353 568 l 1057 568 b 1161 651 1119 568 1161 593 b 1050 735 1161 710 1128 735 m 353 369 l 353 196 l 1074 196 b 1196 283 1158 196 1196 215 b 1081 369 1196 350 1151 369 "},"C":{"ha":1461,"x_min":0,"x_max":0,"o":"m 329 472 b 771 224 329 301 414 224 b 1378 294 989 224 1215 263 l 1428 60 b 761 -18 1235 15 990 -18 b 47 472 242 -18 47 154 b 761 961 47 790 242 961 b 1428 883 990 961 1235 928 l 1378 649 b 771 719 1215 681 989 719 b 329 472 414 719 329 642 "},"D":{"ha":1588,"x_min":0,"x_max":0,"o":"m 75 0 l 75 947 l 997 947 b 1540 475 1324 947 1540 835 b 997 0 1540 104 1321 0 m 357 242 l 971 242 b 1249 475 1167 242 1249 288 b 971 706 1249 660 1167 706 l 357 706 "},"E":{"ha":1400,"x_min":0,"x_max":0,"o":"m 75 0 l 75 947 l 1339 947 l 1339 726 l 357 726 l 357 569 l 1313 569 l 1313 388 l 357 388 l 357 221 l 1339 221 l 1339 0 "},"F":{"ha":1376,"x_min":0,"x_max":0,"o":"m 75 0 l 75 947 l 1339 947 l 1339 706 l 357 706 l 357 532 l 1313 532 l 1313 310 l 357 310 l 357 0 "},"G":{"ha":1493,"x_min":0,"x_max":0,"o":"m 47 472 b 796 961 47 790 251 961 b 1432 883 1017 961 1244 928 l 1381 649 b 775 719 1217 681 997 719 b 329 472 415 719 329 643 b 775 225 329 303 415 225 b 1140 254 903 225 1033 240 l 1140 485 l 1432 485 l 1432 61 b 796 -17 1244 17 1017 -17 b 47 472 251 -17 47 154 "},"H":{"ha":1533,"x_min":0,"x_max":0,"o":"m 75 0 l 75 947 l 357 947 l 357 606 l 1176 606 l 1176 947 l 1458 947 l 1458 0 l 1176 0 l 1176 365 l 357 365 l 357 0 "},"I":{"ha":432,"x_min":0,"x_max":0,"o":"m 75 0 l 75 947 l 357 947 l 357 0 "},"J":{"ha":1039,"x_min":0,"x_max":0,"o":"m 383 221 b 696 424 644 221 696 285 l 696 947 l 978 947 l 978 422 b 393 -21 978 150 840 -21 b 10 33 251 -21 115 -1 l 74 263 b 383 221 167 235 292 221 "},"K":{"ha":1513,"x_min":0,"x_max":0,"o":"m 75 0 l 75 947 l 357 947 l 357 474 l 524 608 l 1036 947 l 1424 947 l 853 546 l 1451 0 l 1078 0 l 633 406 l 357 224 l 357 0 "},"L":{"ha":1325,"x_min":0,"x_max":0,"o":"m 1297 242 l 1297 0 l 75 0 l 75 947 l 357 947 l 357 242 "},"M":{"ha":1963,"x_min":0,"x_max":0,"o":"m 75 0 l 75 947 l 418 947 l 985 232 l 1550 947 l 1888 947 l 1888 0 l 1606 0 l 1606 613 l 1124 0 l 839 0 l 357 613 l 357 0 "},"N":{"ha":1568,"x_min":0,"x_max":0,"o":"m 75 0 l 75 947 l 397 947 l 1211 307 l 1211 947 l 1493 947 l 1493 0 l 1178 0 l 357 651 l 357 0 "},"O":{"ha":1650,"x_min":0,"x_max":0,"o":"m 825 -19 b 47 474 282 -19 47 135 b 825 967 47 813 282 967 b 1603 474 1368 967 1603 813 b 825 -19 1603 135 1368 -19 m 825 222 b 1315 474 1204 222 1315 290 b 825 725 1315 657 1204 725 b 329 474 444 725 329 657 b 825 222 329 290 444 222 "},"P":{"ha":1456,"x_min":0,"x_max":0,"o":"m 75 947 l 1028 947 b 1424 610 1261 947 1424 864 b 1028 243 1424 342 1261 243 l 357 243 l 357 0 l 75 0 m 357 706 l 357 483 l 996 483 b 1132 594 1086 483 1132 514 b 996 706 1132 681 1086 706 "},"Q":{"ha":1650,"x_min":0,"x_max":0,"o":"m 825 -19 b 47 474 282 -19 47 135 b 825 967 47 813 282 967 b 1603 474 1368 967 1603 813 b 1181 11 1603 221 1472 71 l 1450 -254 l 1121 -254 l 878 -19 b 825 -19 861 -19 843 -19 m 825 222 b 1315 474 1204 222 1315 290 b 825 725 1315 657 1204 725 b 329 474 444 725 329 657 b 825 222 329 290 444 222 "},"R":{"ha":1468,"x_min":0,"x_max":0,"o":"m 75 0 l 75 947 l 1024 947 b 1419 617 1257 947 1419 865 b 1086 292 1419 408 1296 308 l 1025 290 l 1100 244 l 1411 0 l 1057 0 l 717 275 l 357 275 l 357 0 m 357 486 l 996 486 b 1128 594 1089 486 1128 517 b 996 706 1128 679 1089 706 l 357 706 "},"S":{"ha":1406,"x_min":0,"x_max":0,"o":"m 1353 269 b 749 -18 1353 69 1217 -18 b 68 57 513 -18 239 15 l 108 283 b 824 203 303 240 539 203 b 1086 278 1046 203 1086 221 b 978 350 1086 336 1051 343 l 454 381 b 53 665 160 394 53 489 b 678 964 53 878 239 964 b 1307 897 846 964 1119 938 l 1261 685 b 613 743 1100 717 850 743 b 319 672 357 743 319 729 b 442 606 319 619 356 611 l 958 575 b 1353 269 1231 560 1353 465 "},"T":{"ha":1464,"x_min":0,"x_max":0,"o":"m 29 706 l 29 947 l 1435 947 l 1435 706 l 874 706 l 874 0 l 592 0 l 592 706 "},"U":{"ha":1492,"x_min":0,"x_max":0,"o":"m 1149 947 l 1431 947 l 1431 442 b 746 -15 1431 118 1164 -15 b 61 442 328 -15 61 118 l 61 947 l 343 947 l 343 501 b 746 225 343 299 465 225 b 1149 501 1026 225 1149 299 "},"V":{"ha":1621,"x_min":0,"x_max":0,"o":"m 10 947 l 353 947 l 814 231 l 1274 947 l 1611 947 l 999 0 l 622 0 "},"W":{"ha":2285,"x_min":0,"x_max":0,"o":"m 24 947 l 342 947 l 635 257 l 974 947 l 1310 947 l 1657 257 l 1943 947 l 2261 947 l 1839 0 l 1478 0 l 1143 674 l 807 0 l 446 0 "},"X":{"ha":1714,"x_min":0,"x_max":0,"o":"m 467 947 l 863 622 l 1261 947 l 1668 947 l 1085 475 l 1674 0 l 1246 0 l 857 321 l 461 0 l 42 0 l 632 471 l 43 947 "},"Y":{"ha":1571,"x_min":0,"x_max":0,"o":"m 1 947 l 363 947 l 788 564 l 1213 947 l 1568 947 l 925 350 l 925 0 l 643 0 l 643 351 "},"Z":{"ha":1514,"x_min":0,"x_max":0,"o":"m 1450 0 l 65 0 l 65 221 l 692 569 b 1106 714 807 622 1007 688 l 646 694 l 88 694 l 88 936 l 1443 936 l 1443 714 l 911 400 b 422 221 781 336 556 260 l 899 242 l 1450 242 "},"Æ":{"ha":2493,"x_min":0,"x_max":0,"o":"m -17 0 l 1058 947 l 2432 947 l 2432 726 l 1494 726 l 1494 569 l 2404 569 l 2406 388 l 1496 388 l 1496 221 l 2432 221 l 2432 0 l 1214 0 l 1214 183 l 565 183 l 354 0 m 786 379 l 1214 379 l 1214 750 "},"Œ":{"ha":2563,"x_min":0,"x_max":0,"o":"m 47 474 b 825 967 47 813 282 967 b 1115 947 935 967 1031 960 l 2501 947 l 2501 726 l 1496 726 b 1597 569 1558 692 1590 644 l 2475 569 l 2475 388 l 1597 388 b 1496 221 1594 308 1561 254 l 2501 221 l 2501 0 l 1115 0 b 825 -19 1031 -12 935 -19 b 47 474 282 -19 47 135 m 329 474 b 825 222 329 290 444 222 b 1315 474 1204 222 1315 290 b 825 725 1315 657 1204 725 b 329 474 444 725 329 657 "},"Ł":{"ha":1406,"x_min":0,"x_max":0,"o":"m 156 460 l 156 947 l 438 947 l 438 572 l 879 747 l 879 590 l 438 415 l 438 242 l 1378 242 l 1378 0 l 156 0 l 156 303 l 14 247 l 14 404 "},"Ø":{"ha":1650,"x_min":0,"x_max":0,"o":"m 110 -42 l 260 83 b 47 474 114 164 47 292 b 825 967 47 813 282 967 b 1258 917 1001 967 1144 950 l 1332 978 l 1569 978 l 1415 849 b 1603 474 1543 768 1603 644 b 825 -19 1603 135 1368 -19 b 424 22 665 -19 532 -6 l 347 -42 m 329 474 b 474 263 329 368 368 300 l 1019 717 b 825 725 964 722 900 725 b 329 474 444 725 329 657 m 825 222 b 1315 474 1204 222 1315 290 b 1204 672 1315 569 1285 633 l 669 228 b 825 222 715 224 767 222 "},"Ð":{"ha":1635,"x_min":0,"x_max":0,"o":"m 14 392 l 14 554 l 122 554 l 122 947 l 1046 947 b 1588 475 1371 947 1588 835 b 1046 0 1588 104 1368 0 l 122 0 l 122 392 m 404 242 l 1018 242 b 1296 475 1215 242 1296 288 b 1018 706 1296 660 1215 706 l 404 706 l 404 544 l 760 544 l 760 401 l 404 401 "},"Þ":{"ha":1456,"x_min":0,"x_max":0,"o":"m 75 0 l 75 947 l 357 947 l 357 811 l 1028 811 b 1424 474 1261 811 1424 728 b 1028 136 1424 225 1261 136 l 357 136 l 357 0 m 357 363 l 996 363 b 1132 474 1086 363 1132 393 b 996 585 1132 558 1086 585 l 357 585 "},"a":{"ha":1254,"x_min":0,"x_max":0,"o":"m 1188 675 l 1189 675 l 1189 0 l 958 0 l 939 94 b 467 -14 800 35 636 -14 b 47 347 215 -14 47 83 b 583 722 47 632 265 722 b 1189 676 828 722 1032 697 m 310 357 b 518 203 310 244 367 203 b 926 272 639 203 778 229 l 926 493 b 557 511 810 504 674 511 b 310 357 393 511 310 468 "},"b":{"ha":1264,"x_min":0,"x_max":0,"o":"m 75 1042 l 338 1042 l 338 647 b 789 726 471 693 629 726 b 1217 360 1067 726 1217 613 b 763 0 1217 107 1049 0 l 75 0 m 765 515 b 338 439 640 515 493 483 l 338 211 l 739 211 b 954 361 883 211 954 254 b 765 515 954 469 899 515 "},"c":{"ha":1179,"x_min":0,"x_max":0,"o":"m 47 356 b 649 726 47 614 226 726 b 1132 672 826 726 1003 703 l 1079 463 b 610 506 976 483 831 506 b 310 356 389 506 310 472 b 610 206 310 238 389 206 b 1079 249 831 206 976 228 l 1132 39 b 649 -15 1003 8 831 -15 b 47 356 226 -15 47 99 "},"d":{"ha":1264,"x_min":0,"x_max":0,"o":"m 1189 1042 l 1189 0 l 958 0 l 940 97 b 486 -14 806 38 650 -14 b 47 347 213 -14 47 79 b 564 722 47 628 257 722 b 926 688 700 722 822 707 l 926 1042 m 310 351 b 528 203 310 244 369 203 b 926 269 646 203 782 228 l 926 488 b 547 511 808 500 667 511 b 310 351 390 511 310 465 "},"e":{"ha":1214,"x_min":0,"x_max":0,"o":"m 649 188 b 1097 224 860 188 1013 210 l 1150 35 b 625 -19 1018 1 807 -19 b 47 354 222 -19 47 90 b 608 726 47 617 244 726 b 1167 408 946 726 1167 639 b 1160 294 1167 375 1163 313 l 307 294 b 649 188 331 207 419 188 m 599 551 b 306 431 404 551 326 522 l 907 431 b 599 551 892 515 822 551 "},"f":{"ha":868,"x_min":0,"x_max":0,"o":"m 157 0 l 157 497 l 17 497 l 17 708 l 157 708 b 647 1061 165 957 347 1061 b 993 1029 779 1061 901 1044 l 944 835 b 636 857 853 846 761 857 b 421 711 476 857 421 818 l 421 708 l 860 708 l 860 497 l 421 497 l 421 0 "},"g":{"ha":1257,"x_min":0,"x_max":0,"o":"m 1199 126 b 590 -271 1199 -154 1008 -271 b 90 -206 421 -271 238 -249 l 144 -11 b 607 -68 297 -49 450 -68 b 949 128 879 -68 956 1 b 499 56 817 85 658 56 b 47 382 208 56 47 144 b 593 722 47 640 258 722 b 1199 676 838 722 1042 697 l 1197 675 l 1199 675 m 310 382 b 518 257 310 294 367 257 b 936 299 640 257 786 268 l 936 493 b 557 511 817 503 676 511 b 310 382 393 511 310 476 "},"h":{"ha":1261,"x_min":0,"x_max":0,"o":"m 75 1042 l 338 1042 l 338 638 b 808 726 478 688 643 726 b 1204 393 1064 726 1204 629 l 1204 0 l 942 0 l 942 349 b 724 508 942 457 869 508 b 338 446 615 508 485 486 l 338 0 l 75 0 "},"i":{"ha":413,"x_min":0,"x_max":0,"o":"m 338 799 l 75 799 l 75 1015 l 338 1015 m 75 708 l 338 708 l 338 0 l 75 0 "},"j":{"ha":413,"x_min":0,"x_max":0,"o":"m 338 799 l 75 799 l 75 1015 l 338 1015 m -60 -253 b 75 138 -17 -194 75 -53 l 75 708 l 338 708 l 338 136 b 213 -253 338 -76 254 -199 "},"k":{"ha":1200,"x_min":0,"x_max":0,"o":"m 338 481 l 542 481 l 858 708 l 1208 708 l 763 374 l 1226 0 l 874 0 l 538 267 l 338 267 l 338 0 l 75 0 l 75 1042 l 338 1042 "},"l":{"ha":413,"x_min":0,"x_max":0,"o":"m 338 0 l 75 0 l 75 1042 l 338 1042 "},"m":{"ha":1954,"x_min":0,"x_max":0,"o":"m 75 707 l 306 707 l 321 629 b 732 726 444 683 586 726 b 1053 613 881 726 989 692 b 1513 726 1189 674 1349 726 b 1896 393 1760 726 1896 629 l 1896 0 l 1633 0 l 1633 349 b 1426 508 1633 457 1564 508 b 1114 451 1332 508 1232 488 b 1117 393 1115 433 1117 414 l 1117 0 l 854 0 l 854 349 b 647 508 854 457 785 508 b 338 450 553 508 454 486 l 338 0 l 75 0 "},"n":{"ha":1261,"x_min":0,"x_max":0,"o":"m 75 708 l 306 708 l 321 624 b 808 726 465 681 636 726 b 1204 393 1064 726 1204 629 l 1204 0 l 942 0 l 942 349 b 724 508 942 457 869 508 b 338 446 615 508 485 486 l 338 0 l 75 0 "},"o":{"ha":1336,"x_min":0,"x_max":0,"o":"m 47 356 b 668 729 47 614 249 729 b 1289 356 1086 729 1289 614 b 668 -18 1289 97 1086 -18 b 47 356 249 -18 47 97 m 310 356 b 668 203 310 246 385 203 b 1026 356 951 203 1026 246 b 668 508 1026 465 951 508 b 310 356 385 508 310 465 "},"p":{"ha":1264,"x_min":0,"x_max":0,"o":"m 75 -257 l 75 708 l 306 708 l 324 611 b 797 722 461 672 626 722 b 1217 360 1056 722 1217 622 b 710 -14 1217 85 1017 -14 b 338 21 578 -14 449 3 l 338 -257 m 749 506 b 338 436 638 506 492 479 l 338 221 b 722 197 458 208 603 197 b 954 356 879 197 954 242 b 749 506 954 463 900 506 "},"q":{"ha":1247,"x_min":0,"x_max":0,"o":"m 1188 675 l 1189 675 l 1189 -251 l 926 -251 l 926 89 b 467 -14 790 32 631 -14 b 47 346 213 -14 47 83 b 574 722 47 632 254 722 b 1189 676 818 722 1032 699 m 310 357 b 518 203 310 244 367 203 b 926 272 639 203 778 229 l 926 493 b 547 511 806 503 664 511 b 310 357 383 511 310 468 "},"r":{"ha":881,"x_min":0,"x_max":0,"o":"m 75 708 l 306 708 l 326 588 b 847 726 471 663 651 726 l 847 490 b 338 408 649 490 500 467 l 338 0 l 75 0 "},"s":{"ha":1140,"x_min":0,"x_max":0,"o":"m 1108 201 b 604 -19 1108 28 951 -19 b 61 42 389 -19 172 14 l 106 211 b 651 156 229 185 438 156 b 864 203 815 156 864 164 b 718 257 864 244 825 250 l 372 276 b 47 508 133 289 47 354 b 575 729 47 689 233 729 b 1064 683 739 729 954 701 l 1025 513 b 514 558 879 539 690 558 b 292 511 339 558 292 550 b 400 463 292 471 328 467 l 746 442 b 1108 201 983 428 1108 371 "},"t":{"ha":1053,"x_min":0,"x_max":0,"o":"m 164 497 l 13 497 l 13 708 l 171 708 l 217 892 l 428 892 l 428 708 l 981 708 l 981 497 l 428 497 l 428 361 b 644 203 428 238 478 203 b 988 243 779 203 883 222 l 1038 35 b 621 -19 925 7 775 -19 b 164 333 319 -19 164 74 "},"u":{"ha":1256,"x_min":0,"x_max":0,"o":"m 58 708 l 319 708 l 319 358 b 543 199 319 250 394 199 b 929 264 649 199 781 222 l 929 708 l 1190 708 l 1190 0 l 961 0 l 946 85 b 457 -19 800 28 629 -19 b 58 314 200 -19 58 78 "},"v":{"ha":1338,"x_min":0,"x_max":0,"o":"m 814 0 l 486 0 l 4 708 l 314 708 l 653 207 l 1026 708 l 1335 708 "},"w":{"ha":1893,"x_min":0,"x_max":0,"o":"m 1104 708 l 1378 214 l 1611 708 l 1889 708 l 1526 0 l 1224 0 l 933 518 l 643 0 l 342 0 l 4 708 l 278 708 l 506 217 l 774 708 "},"x":{"ha":1357,"x_min":0,"x_max":0,"o":"m 8 0 l 496 360 l 10 708 l 383 708 l 683 492 l 976 708 l 1344 708 l 864 360 l 1354 0 l 981 0 l 676 226 l 376 0 "},"y":{"ha":1285,"x_min":0,"x_max":0,"o":"m 58 708 l 319 708 l 319 454 b 572 294 319 338 376 294 b 947 332 689 294 814 307 l 947 708 l 1210 708 l 1210 157 b 631 -271 1210 -165 1029 -271 b 111 -206 451 -271 251 -244 l 157 -6 b 649 -68 321 -46 482 -68 b 960 144 889 -68 971 -11 l 957 151 b 510 79 824 113 667 79 b 58 414 179 79 58 181 "},"z":{"ha":1197,"x_min":0,"x_max":0,"o":"m 1144 0 l 53 0 l 53 181 l 404 375 b 846 526 558 451 760 506 l 67 526 l 67 708 l 1144 708 l 1144 526 l 832 349 b 375 181 649 253 450 203 l 1144 181 "},"æ":{"ha":2078,"x_min":0,"x_max":0,"o":"m 1513 188 b 1961 224 1724 188 1876 210 l 2014 35 b 1489 -19 1881 1 1671 -19 b 982 126 1232 -19 1068 25 b 414 -19 851 50 654 -19 b 56 196 186 -19 56 43 b 518 415 56 356 201 415 l 904 415 b 567 511 883 482 806 511 b 143 467 401 511 243 489 l 106 678 b 599 726 229 704 422 726 b 1044 632 821 726 961 697 b 1472 726 1139 697 1283 726 b 2031 408 1810 726 2031 639 b 2024 294 2031 375 2026 313 l 1171 294 b 1513 188 1194 207 1283 188 m 1463 551 b 1169 431 1268 551 1190 522 l 1771 431 b 1463 551 1756 515 1686 551 m 307 222 b 453 164 307 176 342 164 b 919 261 667 164 794 208 b 917 281 918 268 917 274 l 464 278 b 307 222 351 278 307 269 "},"œ":{"ha":2193,"x_min":0,"x_max":0,"o":"m 47 356 b 668 729 47 614 249 729 b 1154 626 890 729 1053 696 b 1589 726 1249 696 1396 726 b 2146 408 1926 726 2146 639 b 2140 294 2146 375 2143 313 l 1288 294 b 1629 188 1311 207 1400 188 b 2078 224 1840 188 1993 210 l 2131 35 b 1604 -19 1997 1 1786 -19 b 1149 81 1390 -19 1242 11 b 668 -18 1046 14 886 -18 b 47 356 249 -18 47 97 m 1579 551 b 1286 431 1385 551 1307 522 l 1888 431 b 1579 551 1872 515 1803 551 m 310 356 b 668 203 310 246 385 203 b 1026 356 951 203 1026 246 b 668 508 1026 465 951 508 b 310 356 385 508 310 465 "},"ł":{"ha":489,"x_min":0,"x_max":0,"o":"m 14 317 l 14 481 l 114 524 l 114 1042 l 376 1042 l 376 629 l 475 671 l 475 507 l 376 465 l 376 0 l 114 0 l 114 360 "},"ø":{"ha":1343,"x_min":0,"x_max":0,"o":"m 47 356 b 668 729 47 614 249 729 b 964 703 783 729 882 721 l 1032 761 l 1264 761 l 1128 643 b 1289 356 1236 582 1289 488 b 668 -18 1289 97 1086 -18 b 388 6 561 -18 467 -11 l 321 -53 l 88 -53 l 219 61 b 47 356 104 122 47 218 m 310 356 b 413 226 310 292 335 250 l 738 507 b 668 508 715 508 693 508 b 310 356 385 508 310 465 m 1026 356 b 938 479 1026 415 1004 456 l 618 203 b 668 203 633 203 650 203 b 1026 356 951 203 1026 246 "},"ð":{"ha":1326,"x_min":0,"x_max":0,"o":"m 369 751 l 660 876 b 268 1015 528 940 382 985 l 722 1015 b 868 967 768 1004 818 989 l 1000 1024 l 1239 1024 l 978 911 b 1274 447 1136 815 1274 663 b 626 -14 1274 140 1025 -14 b 47 353 261 -14 47 79 b 535 700 47 615 247 700 b 974 619 713 700 860 664 b 765 819 929 699 854 764 l 610 751 m 628 192 b 1013 422 872 192 996 258 b 550 501 885 464 708 501 b 310 353 388 501 310 453 b 628 192 310 243 392 192 "},"þ":{"ha":1264,"x_min":0,"x_max":0,"o":"m 75 -257 l 75 1042 l 338 1042 l 338 618 b 797 722 472 675 632 722 b 1217 360 1056 722 1217 622 b 710 -14 1217 85 1017 -14 b 338 21 578 -14 449 3 l 338 -257 m 749 506 b 338 436 638 506 492 479 l 338 221 b 722 197 458 208 603 197 b 954 356 879 197 954 242 b 749 506 954 463 900 506 "},"ß":{"ha":1339,"x_min":0,"x_max":0,"o":"m 853 -14 b 411 33 690 -15 514 10 l 453 247 b 836 207 567 225 704 207 b 1035 324 983 207 1035 231 b 888 432 1035 404 992 432 l 457 432 l 457 625 l 872 625 b 1000 721 963 625 1000 650 b 701 835 1000 811 953 835 b 338 646 431 835 338 796 l 338 0 l 75 0 l 75 617 b 717 1056 75 946 314 1056 b 1261 761 1089 1056 1261 960 b 1046 539 1261 632 1182 565 b 1296 274 1201 510 1296 439 b 853 -14 1296 88 1151 -14 "},"ı":{"ha":401,"x_min":0,"x_max":0,"o":"m 75 708 l 338 708 l 338 0 l 75 0 "},"ȷ":{"ha":413,"x_min":0,"x_max":0,"o":"m -60 -253 b 75 138 -17 -194 75 -53 l 75 708 l 338 708 l 338 136 b 213 -253 338 -76 254 -199 "},"ﬁ":{"ha":1260,"x_min":0,"x_max":0,"o":"m 157 497 l 17 497 l 17 708 l 157 708 b 647 1061 165 957 346 1061 b 1040 1022 788 1061 940 1040 l 996 828 b 636 857 897 842 768 857 b 421 711 476 857 421 818 l 421 708 l 1185 708 l 1185 0 l 922 0 l 922 497 l 421 497 l 421 0 l 157 0 "},"ﬂ":{"ha":1271,"x_min":0,"x_max":0,"o":"m 157 497 l 17 497 l 17 708 l 157 708 b 632 1061 164 958 326 1061 b 957 1042 744 1061 861 1053 l 1196 1042 l 1196 0 l 933 0 l 933 842 b 639 857 847 850 754 857 b 421 711 476 857 421 818 l 421 708 l 810 708 l 810 497 l 421 497 l 421 0 l 157 0 "},"Á":{"ha":1578,"x_min":0,"x_max":0,"o":"m 1153 1219 l 897 1008 l 646 1008 l 829 1219 m 1138 183 l 438 183 l 322 0 l -17 0 l 601 947 l 976 947 l 1593 0 l 1251 0 m 1014 379 l 788 743 l 560 379 "},"Â":{"ha":1578,"x_min":0,"x_max":0,"o":"m 896 1008 l 783 1106 l 671 1008 l 435 1008 l 664 1221 l 901 1221 l 1132 1008 m 1138 183 l 438 183 l 322 0 l -17 0 l 601 947 l 976 947 l 1593 0 l 1251 0 m 1014 379 l 788 743 l 560 379 "},"Ä":{"ha":1578,"x_min":0,"x_max":0,"o":"m 717 1008 l 486 1008 l 486 1225 l 717 1225 m 1079 1008 l 849 1008 l 849 1225 l 1079 1225 m 1138 183 l 438 183 l 322 0 l -17 0 l 601 947 l 976 947 l 1593 0 l 1251 0 m 1014 379 l 788 743 l 560 379 "},"À":{"ha":1578,"x_min":0,"x_max":0,"o":"m 424 1219 l 749 1219 l 932 1008 l 679 1008 m 1138 183 l 438 183 l 322 0 l -17 0 l 601 947 l 976 947 l 1593 0 l 1251 0 m 1014 379 l 788 743 l 560 379 "},"Å":{"ha":1578,"x_min":0,"x_max":0,"o":"m 783 1007 b 568 1164 636 1007 568 1060 b 783 1315 568 1263 636 1315 b 997 1164 929 1315 997 1263 b 783 1007 997 1060 929 1007 m 688 1163 b 783 1104 688 1125 706 1104 b 878 1163 860 1104 878 1125 b 783 1218 878 1199 860 1218 b 688 1163 706 1218 688 1199 m 1138 183 l 438 183 l 322 0 l -17 0 l 601 947 l 976 947 l 1593 0 l 1251 0 m 1014 379 l 788 743 l 560 379 "},"Ã":{"ha":1578,"x_min":0,"x_max":0,"o":"m 506 1160 b 653 1203 540 1179 593 1203 b 946 1158 767 1203 858 1158 b 1074 1201 1003 1158 1035 1178 l 1074 1049 b 950 1010 1046 1029 1007 1010 b 649 1056 849 1010 749 1056 b 506 1014 586 1056 546 1038 m 1138 183 l 438 183 l 322 0 l -17 0 l 601 947 l 976 947 l 1593 0 l 1251 0 m 1014 379 l 788 743 l 560 379 "},"Ă":{"ha":1578,"x_min":0,"x_max":0,"o":"m 1085 1231 b 782 1008 1085 1086 994 1008 b 478 1231 569 1008 478 1086 l 671 1231 b 782 1140 671 1167 697 1140 b 892 1231 867 1140 892 1167 m 1138 183 l 438 183 l 322 0 l -17 0 l 601 947 l 976 947 l 1593 0 l 1251 0 m 1014 379 l 788 743 l 560 379 "},"Ā":{"ha":1578,"x_min":0,"x_max":0,"o":"m 500 1036 l 500 1197 l 1069 1197 l 1069 1036 m 1138 183 l 438 183 l 322 0 l -17 0 l 601 947 l 976 947 l 1593 0 l 1251 0 m 1014 379 l 788 743 l 560 379 "},"Ą":{"ha":1578,"x_min":0,"x_max":0,"o":"m 1251 0 l 1138 183 l 438 183 l 322 0 l -17 0 l 601 947 l 976 947 l 1593 0 l 1375 0 b 1214 -131 1304 -33 1214 -87 b 1254 -160 1214 -153 1232 -160 b 1400 -124 1293 -160 1354 -143 l 1439 -244 b 1222 -299 1379 -274 1310 -299 b 1061 -183 1115 -299 1061 -258 b 1236 0 1061 -110 1149 -31 m 1014 379 l 788 743 l 560 379 "},"Ç":{"ha":1461,"x_min":0,"x_max":0,"o":"m 329 472 b 771 224 329 301 414 224 b 1378 294 989 224 1215 263 l 1428 60 b 761 -18 1235 15 990 -18 b 47 472 242 -18 47 154 b 761 961 47 790 242 961 b 1428 883 990 961 1235 928 l 1378 649 b 771 719 1215 681 989 719 b 329 472 414 719 329 642 m 918 -57 l 918 -103 b 701 -297 918 -243 865 -297 b 515 -272 636 -297 558 -285 l 546 -136 b 685 -153 589 -144 643 -153 b 760 -92 736 -153 760 -142 l 760 -57 "},"Ć":{"ha":1461,"x_min":0,"x_max":0,"o":"m 1174 1221 l 918 1011 l 665 1011 l 849 1221 m 329 472 b 771 224 329 301 414 224 b 1378 294 989 224 1215 263 l 1428 60 b 761 -18 1235 15 990 -18 b 47 472 242 -18 47 154 b 761 961 47 790 242 961 b 1428 883 990 961 1235 928 l 1378 649 b 771 719 1215 681 989 719 b 329 472 414 719 329 642 "},"Č":{"ha":1461,"x_min":0,"x_max":0,"o":"m 924 1011 l 686 1011 l 456 1224 l 692 1224 l 804 1126 l 917 1224 l 1153 1224 m 329 472 b 771 224 329 301 414 224 b 1378 294 989 224 1215 263 l 1428 60 b 761 -18 1235 15 990 -18 b 47 472 242 -18 47 154 b 761 961 47 790 242 961 b 1428 883 990 961 1235 928 l 1378 649 b 771 719 1215 681 989 719 b 329 472 414 719 329 642 "},"Ĉ":{"ha":1461,"x_min":0,"x_max":0,"o":"m 915 1011 l 803 1107 l 690 1011 l 454 1011 l 685 1224 l 922 1224 l 1151 1011 m 329 472 b 771 224 329 301 414 224 b 1378 294 989 224 1215 263 l 1428 60 b 761 -18 1235 15 990 -18 b 47 472 242 -18 47 154 b 761 961 47 790 242 961 b 1428 883 990 961 1235 928 l 1378 649 b 771 719 1215 681 989 719 b 329 472 414 719 329 642 "},"Ċ":{"ha":1461,"x_min":0,"x_max":0,"o":"m 935 1021 l 672 1021 l 672 1238 l 935 1238 m 329 472 b 771 224 329 301 414 224 b 1378 294 989 224 1215 263 l 1428 60 b 761 -18 1235 15 990 -18 b 47 472 242 -18 47 154 b 761 961 47 790 242 961 b 1428 883 990 961 1235 928 l 1378 649 b 771 719 1215 681 989 719 b 329 472 414 719 329 642 "},"Ď":{"ha":1588,"x_min":0,"x_max":0,"o":"m 914 1011 l 675 1011 l 446 1224 l 682 1224 l 794 1126 l 907 1224 l 1143 1224 m 75 0 l 75 947 l 997 947 b 1540 475 1324 947 1540 835 b 997 0 1540 104 1321 0 m 357 242 l 971 242 b 1249 475 1167 242 1249 288 b 971 706 1249 660 1167 706 l 357 706 "},"Đ":{"ha":1635,"x_min":0,"x_max":0,"o":"m 14 392 l 14 554 l 122 554 l 122 947 l 1046 947 b 1588 475 1371 947 1588 835 b 1046 0 1588 104 1368 0 l 122 0 l 122 392 m 404 242 l 1018 242 b 1296 475 1215 242 1296 288 b 1018 706 1296 660 1215 706 l 404 706 l 404 544 l 760 544 l 760 401 l 404 401 "},"É":{"ha":1400,"x_min":0,"x_max":0,"o":"m 1139 1221 l 882 1011 l 631 1011 l 814 1221 m 75 0 l 75 947 l 1339 947 l 1339 726 l 357 726 l 357 569 l 1313 569 l 1313 388 l 357 388 l 357 221 l 1339 221 l 1339 0 "},"Ê":{"ha":1400,"x_min":0,"x_max":0,"o":"m 881 1011 l 768 1107 l 656 1011 l 419 1011 l 649 1224 l 886 1224 l 1117 1011 m 75 0 l 75 947 l 1339 947 l 1339 726 l 357 726 l 357 569 l 1313 569 l 1313 388 l 357 388 l 357 221 l 1339 221 l 1339 0 "},"Ë":{"ha":1400,"x_min":0,"x_max":0,"o":"m 701 1011 l 471 1011 l 471 1226 l 701 1226 m 1064 1011 l 835 1011 l 835 1226 l 1064 1226 m 75 0 l 75 947 l 1339 947 l 1339 726 l 357 726 l 357 569 l 1313 569 l 1313 388 l 357 388 l 357 221 l 1339 221 l 1339 0 "},"È":{"ha":1400,"x_min":0,"x_max":0,"o":"m 408 1221 l 733 1221 l 917 1011 l 664 1011 m 75 0 l 75 947 l 1339 947 l 1339 726 l 357 726 l 357 569 l 1313 569 l 1313 388 l 357 388 l 357 221 l 1339 221 l 1339 0 "},"Ĕ":{"ha":1400,"x_min":0,"x_max":0,"o":"m 1069 1232 b 767 1010 1069 1089 979 1010 b 463 1232 554 1010 463 1089 l 656 1232 b 767 1142 656 1168 682 1142 b 876 1232 851 1142 876 1168 m 75 0 l 75 947 l 1339 947 l 1339 726 l 357 726 l 357 569 l 1313 569 l 1313 388 l 357 388 l 357 221 l 1339 221 l 1339 0 "},"Ě":{"ha":1400,"x_min":0,"x_max":0,"o":"m 888 1011 l 650 1011 l 421 1224 l 657 1224 l 769 1126 l 882 1224 l 1118 1224 m 75 0 l 75 947 l 1339 947 l 1339 726 l 357 726 l 357 569 l 1313 569 l 1313 388 l 357 388 l 357 221 l 1339 221 l 1339 0 "},"Ė":{"ha":1400,"x_min":0,"x_max":0,"o":"m 899 1021 l 638 1021 l 638 1238 l 899 1238 m 75 0 l 75 947 l 1339 947 l 1339 726 l 357 726 l 357 569 l 1313 569 l 1313 388 l 357 388 l 357 221 l 1339 221 l 1339 0 "},"Ē":{"ha":1400,"x_min":0,"x_max":0,"o":"m 485 1039 l 485 1199 l 1054 1199 l 1054 1039 m 75 0 l 75 947 l 1339 947 l 1339 726 l 357 726 l 357 569 l 1313 569 l 1313 388 l 357 388 l 357 221 l 1339 221 l 1339 0 "},"Ę":{"ha":1400,"x_min":0,"x_max":0,"o":"m 75 0 l 75 947 l 1339 947 l 1339 726 l 357 726 l 357 569 l 1313 569 l 1313 388 l 357 388 l 357 221 l 1339 221 l 1339 0 b 1178 -131 1268 -33 1178 -87 b 1218 -160 1178 -153 1196 -160 b 1364 -124 1257 -160 1318 -143 l 1401 -244 b 1185 -299 1343 -274 1274 -299 b 1025 -183 1079 -299 1025 -258 b 1200 0 1025 -110 1113 -31 "},"Ğ":{"ha":1493,"x_min":0,"x_max":0,"o":"m 1117 1232 b 814 1010 1117 1089 1028 1010 b 510 1232 601 1010 510 1089 l 703 1232 b 814 1142 703 1168 729 1142 b 924 1232 899 1142 924 1168 m 47 472 b 796 961 47 790 251 961 b 1432 883 1017 961 1244 928 l 1381 649 b 775 719 1217 681 997 719 b 329 472 415 719 329 643 b 775 225 329 303 415 225 b 1140 254 903 225 1033 240 l 1140 485 l 1432 485 l 1432 61 b 796 -17 1244 17 1017 -17 b 47 472 251 -17 47 154 "},"Ĝ":{"ha":1493,"x_min":0,"x_max":0,"o":"m 928 1011 l 815 1107 l 703 1011 l 467 1011 l 697 1224 l 935 1224 l 1164 1011 m 47 472 b 796 961 47 790 251 961 b 1432 883 1017 961 1244 928 l 1381 649 b 775 719 1217 681 997 719 b 329 472 415 719 329 643 b 775 225 329 303 415 225 b 1140 254 903 225 1033 240 l 1140 485 l 1432 485 l 1432 61 b 796 -17 1244 17 1017 -17 b 47 472 251 -17 47 154 "},"Ģ":{"ha":1493,"x_min":0,"x_max":0,"o":"m 47 472 b 796 961 47 790 251 961 b 1432 883 1017 961 1244 928 l 1381 649 b 775 719 1217 681 997 719 b 329 472 415 719 329 643 b 775 225 329 303 415 225 b 1140 254 903 225 1033 240 l 1140 485 l 1432 485 l 1432 61 b 796 -17 1244 17 1017 -17 b 47 472 251 -17 47 154 m 940 -79 l 751 -290 l 542 -290 l 676 -79 "},"Ġ":{"ha":1493,"x_min":0,"x_max":0,"o":"m 947 1021 l 685 1021 l 685 1238 l 947 1238 m 47 472 b 796 961 47 790 251 961 b 1432 883 1017 961 1244 928 l 1381 649 b 775 719 1217 681 997 719 b 329 472 415 719 329 643 b 775 225 329 303 415 225 b 1140 254 903 225 1033 240 l 1140 485 l 1432 485 l 1432 61 b 796 -17 1244 17 1017 -17 b 47 472 251 -17 47 154 "},"Ħ":{"ha":1621,"x_min":0,"x_max":0,"o":"m 17 653 l 17 821 l 119 821 l 119 947 l 401 947 l 401 815 l 1219 815 l 1219 947 l 1501 947 l 1501 821 l 1604 821 l 1604 653 l 1501 653 l 1501 0 l 1219 0 l 1219 315 l 401 315 l 401 0 l 119 0 l 119 653 m 401 536 l 1219 536 l 1219 658 l 401 658 "},"Ĥ":{"ha":1533,"x_min":0,"x_max":0,"o":"m 879 1011 l 767 1107 l 654 1011 l 418 1011 l 649 1224 l 886 1224 l 1115 1011 m 75 0 l 75 947 l 357 947 l 357 606 l 1176 606 l 1176 947 l 1458 947 l 1458 0 l 1176 0 l 1176 365 l 357 365 l 357 0 "},"Í":{"ha":432,"x_min":0,"x_max":0,"o":"m 586 1219 l 331 1008 l 78 1008 l 261 1219 m 75 0 l 75 947 l 357 947 l 357 0 "},"Î":{"ha":432,"x_min":0,"x_max":0,"o":"m 328 1008 l 215 1106 l 103 1008 l -133 1008 l 97 1221 l 335 1221 l 564 1008 m 75 0 l 75 947 l 357 947 l 357 0 "},"Ï":{"ha":432,"x_min":0,"x_max":0,"o":"m 149 1008 l -81 1008 l -81 1225 l 149 1225 m 511 1008 l 282 1008 l 282 1225 l 511 1225 m 75 0 l 75 947 l 357 947 l 357 0 "},"Ì":{"ha":432,"x_min":0,"x_max":0,"o":"m -144 1219 l 181 1219 l 364 1008 l 113 1008 m 75 0 l 75 947 l 357 947 l 357 0 "},"Ĭ":{"ha":432,"x_min":0,"x_max":0,"o":"m 517 1231 b 214 1008 517 1086 428 1008 b -90 1231 1 1008 -90 1086 l 103 1231 b 214 1140 103 1167 131 1140 b 325 1231 299 1140 325 1167 m 75 0 l 75 947 l 357 947 l 357 0 "},"İ":{"ha":432,"x_min":0,"x_max":0,"o":"m 347 1019 l 85 1019 l 85 1235 l 347 1235 m 75 0 l 75 947 l 357 947 l 357 0 "},"Ī":{"ha":432,"x_min":0,"x_max":0,"o":"m -68 1036 l -68 1197 l 503 1197 l 503 1036 m 75 0 l 75 947 l 357 947 l 357 0 "},"Į":{"ha":432,"x_min":0,"x_max":0,"o":"m 75 0 l 75 947 l 357 947 l 357 0 b 196 -131 286 -33 196 -87 b 236 -160 196 -153 214 -160 b 382 -124 275 -160 336 -143 l 421 -244 b 203 -299 361 -274 292 -299 b 43 -183 97 -299 43 -258 b 218 0 43 -110 131 -31 "},"Ĩ":{"ha":432,"x_min":0,"x_max":0,"o":"m -62 1160 b 85 1203 -28 1179 25 1203 b 379 1158 199 1203 292 1158 b 507 1201 435 1158 467 1178 l 507 1049 b 382 1010 479 1029 440 1010 b 82 1056 281 1010 182 1056 b -62 1014 18 1056 -22 1038 m 75 0 l 75 947 l 357 947 l 357 0 "},"Ĵ":{"ha":1039,"x_min":0,"x_max":0,"o":"m 946 1008 l 833 1106 l 721 1008 l 485 1008 l 715 1221 l 953 1221 l 1182 1008 m 383 221 b 696 424 644 221 696 285 l 696 947 l 978 947 l 978 422 b 393 -21 978 150 840 -21 b 10 33 251 -21 115 -1 l 74 263 b 383 221 167 235 292 221 "},"Ĳ":{"ha":1117,"x_min":0,"x_max":0,"o":"m 461 221 b 775 424 722 221 775 285 l 775 947 l 1057 947 l 1057 422 b 471 -21 1057 150 919 -21 b 89 33 329 -21 193 -1 l 151 263 b 461 221 244 235 369 221 m 75 385 l 75 936 l 357 936 l 357 385 "},"Ķ":{"ha":1513,"x_min":0,"x_max":0,"o":"m 75 0 l 75 947 l 357 947 l 357 474 l 524 608 l 1036 947 l 1424 947 l 853 546 l 1451 0 l 1078 0 l 633 406 l 357 224 l 357 0 m 888 -79 l 700 -290 l 489 -290 l 625 -79 "},"Ĺ":{"ha":1325,"x_min":0,"x_max":0,"o":"m 590 1219 l 333 1008 l 82 1008 l 265 1219 m 1297 242 l 1297 0 l 75 0 l 75 947 l 357 947 l 357 242 "},"Ľ":{"ha":1325,"x_min":0,"x_max":0,"o":"m 1297 242 l 1297 0 l 75 0 l 75 947 l 357 947 l 357 242 m 715 715 l 614 715 l 614 947 l 843 947 l 843 690 b 675 546 843 600 790 546 b 594 554 649 546 619 549 l 611 664 b 665 660 632 661 649 660 b 715 696 706 660 715 667 "},"Ļ":{"ha":1325,"x_min":0,"x_max":0,"o":"m 1297 242 l 1297 0 l 75 0 l 75 947 l 357 947 l 357 242 m 846 -79 l 658 -290 l 449 -290 l 583 -79 "},"Ŀ":{"ha":1325,"x_min":0,"x_max":0,"o":"m 1297 242 l 1297 0 l 75 0 l 75 947 l 357 947 l 357 242 m 931 443 l 658 443 l 658 721 l 931 721 "},"Ñ":{"ha":1568,"x_min":0,"x_max":0,"o":"m 549 1161 b 694 1204 582 1182 636 1204 b 989 1161 808 1204 901 1161 b 1117 1203 1046 1161 1078 1179 l 1117 1051 b 993 1011 1089 1032 1050 1011 b 692 1057 892 1011 792 1057 b 549 1015 629 1057 589 1039 m 75 0 l 75 947 l 397 947 l 1211 307 l 1211 947 l 1493 947 l 1493 0 l 1178 0 l 357 651 l 357 0 "},"Ń":{"ha":1568,"x_min":0,"x_max":0,"o":"m 1196 1221 l 940 1011 l 689 1011 l 872 1221 m 75 0 l 75 947 l 397 947 l 1211 307 l 1211 947 l 1493 947 l 1493 0 l 1178 0 l 357 651 l 357 0 "},"Ň":{"ha":1568,"x_min":0,"x_max":0,"o":"m 946 1011 l 708 1011 l 479 1224 l 715 1224 l 828 1126 l 940 1224 l 1176 1224 m 75 0 l 75 947 l 397 947 l 1211 307 l 1211 947 l 1493 947 l 1493 0 l 1178 0 l 357 651 l 357 0 "},"Ņ":{"ha":1568,"x_min":0,"x_max":0,"o":"m 75 0 l 75 947 l 397 947 l 1211 307 l 1211 947 l 1493 947 l 1493 0 l 1178 0 l 357 651 l 357 0 m 933 -79 l 744 -290 l 535 -290 l 671 -79 "},"Ó":{"ha":1650,"x_min":0,"x_max":0,"o":"m 1196 1221 l 939 1011 l 688 1011 l 871 1221 m 825 -19 b 47 474 282 -19 47 135 b 825 967 47 813 282 967 b 1603 474 1368 967 1603 813 b 825 -19 1603 135 1368 -19 m 825 222 b 1315 474 1204 222 1315 290 b 825 725 1315 657 1204 725 b 329 474 444 725 329 657 b 825 222 329 290 444 222 "},"Ô":{"ha":1650,"x_min":0,"x_max":0,"o":"m 938 1011 l 825 1107 l 713 1011 l 476 1011 l 706 1224 l 944 1224 l 1174 1011 m 825 -19 b 47 474 282 -19 47 135 b 825 967 47 813 282 967 b 1603 474 1368 967 1603 813 b 825 -19 1603 135 1368 -19 m 825 222 b 1315 474 1204 222 1315 290 b 825 725 1315 657 1204 725 b 329 474 444 725 329 657 b 825 222 329 290 444 222 "},"Ö":{"ha":1650,"x_min":0,"x_max":0,"o":"m 758 1011 l 528 1011 l 528 1226 l 758 1226 m 1121 1011 l 892 1011 l 892 1226 l 1121 1226 m 825 -19 b 47 474 282 -19 47 135 b 825 967 47 813 282 967 b 1603 474 1368 967 1603 813 b 825 -19 1603 135 1368 -19 m 825 222 b 1315 474 1204 222 1315 290 b 825 725 1315 657 1204 725 b 329 474 444 725 329 657 b 825 222 329 290 444 222 "},"Ò":{"ha":1650,"x_min":0,"x_max":0,"o":"m 465 1221 l 790 1221 l 974 1011 l 722 1011 m 825 -19 b 47 474 282 -19 47 135 b 825 967 47 813 282 967 b 1603 474 1368 967 1603 813 b 825 -19 1603 135 1368 -19 m 825 222 b 1315 474 1204 222 1315 290 b 825 725 1315 657 1204 725 b 329 474 444 725 329 657 b 825 222 329 290 444 222 "},"Õ":{"ha":1650,"x_min":0,"x_max":0,"o":"m 547 1161 b 694 1204 582 1182 635 1204 b 988 1161 808 1204 900 1161 b 1115 1203 1044 1161 1076 1179 l 1115 1051 b 992 1011 1089 1032 1049 1011 b 690 1057 890 1011 790 1057 b 547 1015 628 1057 588 1039 m 825 -19 b 47 474 282 -19 47 135 b 825 967 47 813 282 967 b 1603 474 1368 967 1603 813 b 825 -19 1603 135 1368 -19 m 825 222 b 1315 474 1204 222 1315 290 b 825 725 1315 657 1204 725 b 329 474 444 725 329 657 b 825 222 329 290 444 222 "},"Ŏ":{"ha":1650,"x_min":0,"x_max":0,"o":"m 1126 1232 b 824 1010 1126 1089 1036 1010 b 519 1232 611 1010 519 1089 l 713 1232 b 824 1142 713 1168 739 1142 b 933 1232 908 1142 933 1168 m 825 -19 b 47 474 282 -19 47 135 b 825 967 47 813 282 967 b 1603 474 1368 967 1603 813 b 825 -19 1603 135 1368 -19 m 825 222 b 1315 474 1204 222 1315 290 b 825 725 1315 657 1204 725 b 329 474 444 725 329 657 b 825 222 329 290 444 222 "},"Ő":{"ha":1650,"x_min":0,"x_max":0,"o":"m 933 1221 l 719 1011 l 517 1011 l 661 1221 m 1310 1221 l 1067 1011 l 864 1011 l 1038 1221 m 825 -19 b 47 474 282 -19 47 135 b 825 967 47 813 282 967 b 1603 474 1368 967 1603 813 b 825 -19 1603 135 1368 -19 m 825 222 b 1315 474 1204 222 1315 290 b 825 725 1315 657 1204 725 b 329 474 444 725 329 657 b 825 222 329 290 444 222 "},"Ō":{"ha":1650,"x_min":0,"x_max":0,"o":"m 542 1039 l 542 1199 l 1111 1199 l 1111 1039 m 825 -19 b 47 474 282 -19 47 135 b 825 967 47 813 282 967 b 1603 474 1368 967 1603 813 b 825 -19 1603 135 1368 -19 m 825 222 b 1315 474 1204 222 1315 290 b 825 725 1315 657 1204 725 b 329 474 444 725 329 657 b 825 222 329 290 444 222 "},"Ŕ":{"ha":1468,"x_min":0,"x_max":0,"o":"m 1056 1221 l 799 1011 l 547 1011 l 731 1221 m 75 0 l 75 947 l 1024 947 b 1419 617 1257 947 1419 865 b 1086 292 1419 408 1296 308 l 1025 290 l 1100 244 l 1411 0 l 1057 0 l 717 275 l 357 275 l 357 0 m 357 486 l 996 486 b 1128 594 1089 486 1128 517 b 996 706 1128 679 1089 706 l 357 706 "},"Ř":{"ha":1468,"x_min":0,"x_max":0,"o":"m 806 1011 l 568 1011 l 338 1224 l 574 1224 l 686 1126 l 799 1224 l 1035 1224 m 75 0 l 75 947 l 1024 947 b 1419 617 1257 947 1419 865 b 1086 292 1419 408 1296 308 l 1025 290 l 1100 244 l 1411 0 l 1057 0 l 717 275 l 357 275 l 357 0 m 357 486 l 996 486 b 1128 594 1089 486 1128 517 b 996 706 1128 679 1089 706 l 357 706 "},"Ŗ":{"ha":1468,"x_min":0,"x_max":0,"o":"m 75 0 l 75 947 l 1024 947 b 1419 617 1257 947 1419 865 b 1086 292 1419 408 1296 308 l 1025 290 l 1100 244 l 1411 0 l 1057 0 l 717 275 l 357 275 l 357 0 m 357 486 l 996 486 b 1128 594 1089 486 1128 517 b 996 706 1128 679 1089 706 l 357 706 m 794 -79 l 606 -290 l 396 -290 l 531 -79 "},"Š":{"ha":1406,"x_min":0,"x_max":0,"o":"m 793 1011 l 556 1011 l 325 1224 l 561 1224 l 674 1126 l 786 1224 l 1022 1224 m 1353 269 b 749 -18 1353 69 1217 -18 b 68 57 513 -18 239 15 l 108 283 b 824 203 303 240 539 203 b 1086 278 1046 203 1086 221 b 978 350 1086 336 1051 343 l 454 381 b 53 665 160 394 53 489 b 678 964 53 878 239 964 b 1307 897 846 964 1119 938 l 1261 685 b 613 743 1100 717 850 743 b 319 672 357 743 319 729 b 442 606 319 619 356 611 l 958 575 b 1353 269 1231 560 1353 465 "},"Ś":{"ha":1406,"x_min":0,"x_max":0,"o":"m 1043 1221 l 788 1011 l 535 1011 l 718 1221 m 1353 269 b 749 -18 1353 69 1217 -18 b 68 57 513 -18 239 15 l 108 283 b 824 203 303 240 539 203 b 1086 278 1046 203 1086 221 b 978 350 1086 336 1051 343 l 454 381 b 53 665 160 394 53 489 b 678 964 53 878 239 964 b 1307 897 846 964 1119 938 l 1261 685 b 613 743 1100 717 850 743 b 319 672 357 743 319 729 b 442 606 319 619 356 611 l 958 575 b 1353 269 1231 560 1353 465 "},"Ş":{"ha":1406,"x_min":0,"x_max":0,"o":"m 1353 269 b 749 -18 1353 69 1217 -18 b 68 57 513 -18 239 15 l 108 283 b 824 203 303 240 539 203 b 1086 278 1046 203 1086 221 b 978 350 1086 336 1051 343 l 454 381 b 53 665 160 394 53 489 b 678 964 53 878 239 964 b 1307 897 846 964 1119 938 l 1261 685 b 613 743 1100 717 850 743 b 319 672 357 743 319 729 b 442 606 319 619 356 611 l 958 575 b 1353 269 1231 560 1353 465 m 804 -71 l 804 -117 b 588 -311 804 -257 751 -311 b 401 -286 522 -311 444 -299 l 433 -150 b 571 -167 475 -158 529 -167 b 646 -106 622 -167 646 -156 l 646 -71 "},"Ŝ":{"ha":1406,"x_min":0,"x_max":0,"o":"m 785 1011 l 672 1107 l 560 1011 l 324 1011 l 554 1224 l 792 1224 l 1021 1011 m 1353 269 b 749 -18 1353 69 1217 -18 b 68 57 513 -18 239 15 l 108 283 b 824 203 303 240 539 203 b 1086 278 1046 203 1086 221 b 978 350 1086 336 1051 343 l 454 381 b 53 665 160 394 53 489 b 678 964 53 878 239 964 b 1307 897 846 964 1119 938 l 1261 685 b 613 743 1100 717 850 743 b 319 672 357 743 319 729 b 442 606 319 619 356 611 l 958 575 b 1353 269 1231 560 1353 465 "},"Ŧ":{"ha":1464,"x_min":0,"x_max":0,"o":"m 29 706 l 29 947 l 1435 947 l 1435 706 l 874 706 l 874 486 l 1207 486 l 1207 319 l 874 319 l 874 0 l 592 0 l 592 319 l 257 319 l 257 486 l 592 486 l 592 706 "},"Ť":{"ha":1464,"x_min":0,"x_max":0,"o":"m 853 1011 l 614 1011 l 385 1224 l 621 1224 l 733 1126 l 846 1224 l 1082 1224 m 29 706 l 29 947 l 1435 947 l 1435 706 l 874 706 l 874 0 l 592 0 l 592 706 "},"Ú":{"ha":1492,"x_min":0,"x_max":0,"o":"m 1117 1219 l 860 1008 l 608 1008 l 792 1219 m 1149 947 l 1431 947 l 1431 442 b 746 -15 1431 118 1164 -15 b 61 442 328 -15 61 118 l 61 947 l 343 947 l 343 501 b 746 225 343 299 465 225 b 1149 501 1026 225 1149 299 "},"Û":{"ha":1492,"x_min":0,"x_max":0,"o":"m 858 1008 l 746 1106 l 633 1008 l 397 1008 l 626 1221 l 865 1221 l 1094 1008 m 1149 947 l 1431 947 l 1431 442 b 746 -15 1431 118 1164 -15 b 61 442 328 -15 61 118 l 61 947 l 343 947 l 343 501 b 746 225 343 299 465 225 b 1149 501 1026 225 1149 299 "},"Ü":{"ha":1492,"x_min":0,"x_max":0,"o":"m 679 1008 l 449 1008 l 449 1225 l 679 1225 m 1042 1008 l 813 1008 l 813 1225 l 1042 1225 m 1149 947 l 1431 947 l 1431 442 b 746 -15 1431 118 1164 -15 b 61 442 328 -15 61 118 l 61 947 l 343 947 l 343 501 b 746 225 343 299 465 225 b 1149 501 1026 225 1149 299 "},"Ù":{"ha":1492,"x_min":0,"x_max":0,"o":"m 386 1219 l 711 1219 l 894 1008 l 643 1008 m 1149 947 l 1431 947 l 1431 442 b 746 -15 1431 118 1164 -15 b 61 442 328 -15 61 118 l 61 947 l 343 947 l 343 501 b 746 225 343 299 465 225 b 1149 501 1026 225 1149 299 "},"Ŭ":{"ha":1492,"x_min":0,"x_max":0,"o":"m 1047 1231 b 744 1008 1047 1086 957 1008 b 440 1231 532 1008 440 1086 l 633 1231 b 744 1140 633 1167 660 1140 b 854 1231 829 1140 854 1167 m 1149 947 l 1431 947 l 1431 442 b 746 -15 1431 118 1164 -15 b 61 442 328 -15 61 118 l 61 947 l 343 947 l 343 501 b 746 225 343 299 465 225 b 1149 501 1026 225 1149 299 "},"Ű":{"ha":1492,"x_min":0,"x_max":0,"o":"m 854 1219 l 642 1008 l 438 1008 l 582 1219 m 1231 1219 l 989 1008 l 785 1008 l 958 1219 m 1149 947 l 1431 947 l 1431 442 b 746 -15 1431 118 1164 -15 b 61 442 328 -15 61 118 l 61 947 l 343 947 l 343 501 b 746 225 343 299 465 225 b 1149 501 1026 225 1149 299 "},"Ū":{"ha":1492,"x_min":0,"x_max":0,"o":"m 463 1036 l 463 1197 l 1032 1197 l 1032 1036 m 1149 947 l 1431 947 l 1431 442 b 746 -15 1431 118 1164 -15 b 61 442 328 -15 61 118 l 61 947 l 343 947 l 343 501 b 746 225 343 299 465 225 b 1149 501 1026 225 1149 299 "},"Ų":{"ha":1492,"x_min":0,"x_max":0,"o":"m 1149 947 l 1431 947 l 1431 442 b 969 0 1431 181 1257 43 l 971 0 b 811 -131 900 -33 811 -87 b 851 -160 811 -153 828 -160 b 996 -124 889 -160 950 -143 l 1035 -244 b 818 -299 975 -274 906 -299 b 658 -183 711 -299 658 -258 b 797 -14 658 -119 724 -51 b 746 -15 781 -15 764 -15 b 61 442 328 -15 61 118 l 61 947 l 343 947 l 343 501 b 746 225 343 299 465 225 b 1149 501 1026 225 1149 299 "},"Ů":{"ha":1492,"x_min":0,"x_max":0,"o":"m 746 1007 b 531 1164 599 1007 531 1060 b 746 1315 531 1263 599 1315 b 960 1164 893 1315 960 1263 b 746 1007 960 1060 893 1007 m 650 1163 b 746 1104 650 1125 668 1104 b 840 1163 822 1104 840 1125 b 746 1218 840 1199 822 1218 b 650 1163 668 1218 650 1199 m 1149 947 l 1431 947 l 1431 442 b 746 -15 1431 118 1164 -15 b 61 442 328 -15 61 118 l 61 947 l 343 947 l 343 501 b 746 225 343 299 465 225 b 1149 501 1026 225 1149 299 "},"Ũ":{"ha":1492,"x_min":0,"x_max":0,"o":"m 468 1160 b 615 1203 503 1179 556 1203 b 908 1158 729 1203 822 1158 b 1036 1201 965 1158 997 1178 l 1036 1049 b 913 1010 1010 1029 971 1010 b 611 1056 811 1010 713 1056 b 468 1014 549 1056 508 1038 m 1149 947 l 1431 947 l 1431 442 b 746 -15 1431 118 1164 -15 b 61 442 328 -15 61 118 l 61 947 l 343 947 l 343 501 b 746 225 343 299 465 225 b 1149 501 1026 225 1149 299 "},"Ẃ":{"ha":2285,"x_min":0,"x_max":0,"o":"m 1513 1221 l 1257 1011 l 1004 1011 l 1188 1221 m 24 947 l 342 947 l 635 257 l 974 947 l 1310 947 l 1657 257 l 1943 947 l 2261 947 l 1839 0 l 1478 0 l 1143 674 l 807 0 l 446 0 "},"Ŵ":{"ha":2285,"x_min":0,"x_max":0,"o":"m 1256 1011 l 1143 1107 l 1029 1011 l 793 1011 l 1024 1224 l 1261 1224 l 1490 1011 m 24 947 l 342 947 l 635 257 l 974 947 l 1310 947 l 1657 257 l 1943 947 l 2261 947 l 1839 0 l 1478 0 l 1143 674 l 807 0 l 446 0 "},"Ẅ":{"ha":2285,"x_min":0,"x_max":0,"o":"m 1075 1011 l 846 1011 l 846 1226 l 1075 1226 m 1439 1011 l 1208 1011 l 1208 1226 l 1439 1226 m 24 947 l 342 947 l 635 257 l 974 947 l 1310 947 l 1657 257 l 1943 947 l 2261 947 l 1839 0 l 1478 0 l 1143 674 l 807 0 l 446 0 "},"Ẁ":{"ha":2285,"x_min":0,"x_max":0,"o":"m 783 1221 l 1107 1221 l 1290 1011 l 1039 1011 m 24 947 l 342 947 l 635 257 l 974 947 l 1310 947 l 1657 257 l 1943 947 l 2261 947 l 1839 0 l 1478 0 l 1143 674 l 807 0 l 446 0 "},"Ý":{"ha":1571,"x_min":0,"x_max":0,"o":"m 1158 1221 l 901 1011 l 650 1011 l 833 1221 m 1 947 l 363 947 l 788 564 l 1213 947 l 1568 947 l 925 350 l 925 0 l 643 0 l 643 351 "},"Ÿ":{"ha":1571,"x_min":0,"x_max":0,"o":"m 721 1011 l 490 1011 l 490 1226 l 721 1226 m 1083 1011 l 854 1011 l 854 1226 l 1083 1226 m 1 947 l 363 947 l 788 564 l 1213 947 l 1568 947 l 925 350 l 925 0 l 643 0 l 643 351 "},"Ŷ":{"ha":1571,"x_min":0,"x_max":0,"o":"m 900 1011 l 788 1107 l 675 1011 l 439 1011 l 668 1224 l 907 1224 l 1136 1011 m 1 947 l 363 947 l 788 564 l 1213 947 l 1568 947 l 925 350 l 925 0 l 643 0 l 643 351 "},"Ỳ":{"ha":1571,"x_min":0,"x_max":0,"o":"m 428 1221 l 753 1221 l 936 1011 l 685 1011 m 1 947 l 363 947 l 788 564 l 1213 947 l 1568 947 l 925 350 l 925 0 l 643 0 l 643 351 "},"Ž":{"ha":1514,"x_min":0,"x_max":0,"o":"m 879 1011 l 642 1011 l 413 1224 l 649 1224 l 761 1126 l 874 1224 l 1110 1224 m 1450 0 l 65 0 l 65 221 l 692 569 b 1106 714 807 622 1007 688 l 646 694 l 88 694 l 88 936 l 1443 936 l 1443 714 l 911 400 b 422 221 781 336 556 260 l 899 242 l 1450 242 "},"Ź":{"ha":1514,"x_min":0,"x_max":0,"o":"m 1129 1221 l 874 1011 l 622 1011 l 806 1221 m 1450 0 l 65 0 l 65 221 l 692 569 b 1106 714 807 622 1007 688 l 646 694 l 88 694 l 88 936 l 1443 936 l 1443 714 l 911 400 b 422 221 781 336 556 260 l 899 242 l 1450 242 "},"Ż":{"ha":1514,"x_min":0,"x_max":0,"o":"m 890 1021 l 629 1021 l 629 1238 l 890 1238 m 1450 0 l 65 0 l 65 221 l 692 569 b 1106 714 807 622 1007 688 l 646 694 l 88 694 l 88 936 l 1443 936 l 1443 714 l 911 400 b 422 221 781 336 556 260 l 899 242 l 1450 242 "},"á":{"ha":1254,"x_min":0,"x_max":0,"o":"m 1046 1038 l 775 826 l 524 826 l 722 1038 m 1188 675 l 1189 675 l 1189 0 l 958 0 l 939 94 b 467 -14 800 35 636 -14 b 47 347 215 -14 47 83 b 583 722 47 632 265 722 b 1189 676 828 722 1032 697 m 310 357 b 518 203 310 244 367 203 b 926 272 639 203 778 229 l 926 493 b 557 511 810 504 674 511 b 310 357 393 511 310 468 "},"â":{"ha":1254,"x_min":0,"x_max":0,"o":"m 771 825 l 658 921 l 546 825 l 310 825 l 539 1038 l 778 1038 l 1007 825 m 1188 675 l 1189 675 l 1189 0 l 958 0 l 939 94 b 467 -14 800 35 636 -14 b 47 347 215 -14 47 83 b 583 722 47 632 265 722 b 1189 676 828 722 1032 697 m 310 357 b 518 203 310 244 367 203 b 926 272 639 203 778 229 l 926 493 b 557 511 810 504 674 511 b 310 357 393 511 310 468 "},"ä":{"ha":1254,"x_min":0,"x_max":0,"o":"m 592 817 l 361 817 l 361 1032 l 592 1032 m 954 817 l 724 817 l 724 1032 l 954 1032 m 1188 675 l 1189 675 l 1189 0 l 958 0 l 939 94 b 467 -14 800 35 636 -14 b 47 347 215 -14 47 83 b 583 722 47 632 265 722 b 1189 676 828 722 1032 697 m 310 357 b 518 203 310 244 367 203 b 926 272 639 203 778 229 l 926 493 b 557 511 810 504 674 511 b 310 357 393 511 310 468 "},"à":{"ha":1254,"x_min":0,"x_max":0,"o":"m 263 1038 l 586 1038 l 783 826 l 531 826 m 1188 675 l 1189 675 l 1189 0 l 958 0 l 939 94 b 467 -14 800 35 636 -14 b 47 347 215 -14 47 83 b 583 722 47 632 265 722 b 1189 676 828 722 1032 697 m 310 357 b 518 203 310 244 367 203 b 926 272 639 203 778 229 l 926 493 b 557 511 810 504 674 511 b 310 357 393 511 310 468 "},"å":{"ha":1254,"x_min":0,"x_max":0,"o":"m 657 817 b 442 972 511 817 442 868 b 657 1124 442 1072 511 1124 b 872 972 804 1124 872 1072 b 657 817 872 868 804 817 m 563 972 b 657 913 563 933 581 913 b 751 972 735 913 751 933 b 657 1026 751 1007 735 1026 b 563 972 581 1026 563 1007 m 1188 675 l 1189 675 l 1189 0 l 958 0 l 939 94 b 467 -14 800 35 636 -14 b 47 347 215 -14 47 83 b 583 722 47 632 265 722 b 1189 676 828 722 1032 697 m 310 357 b 518 203 310 244 367 203 b 926 272 639 203 778 229 l 926 493 b 557 511 810 504 674 511 b 310 357 393 511 310 468 "},"ã":{"ha":1254,"x_min":0,"x_max":0,"o":"m 382 978 b 529 1019 417 997 469 1019 b 822 976 643 1019 735 976 b 950 1018 879 976 911 994 l 950 867 b 826 828 924 847 883 828 b 525 872 725 828 625 872 b 382 831 463 872 422 856 m 1188 675 l 1189 675 l 1189 0 l 958 0 l 939 94 b 467 -14 800 35 636 -14 b 47 347 215 -14 47 83 b 583 722 47 632 265 722 b 1189 676 828 722 1032 697 m 310 357 b 518 203 310 244 367 203 b 926 272 639 203 778 229 l 926 493 b 557 511 810 504 674 511 b 310 357 393 511 310 468 "},"ă":{"ha":1254,"x_min":0,"x_max":0,"o":"m 961 1035 b 657 813 961 890 871 813 b 353 1035 444 813 353 890 l 546 1035 b 657 944 546 971 574 944 b 768 1035 742 944 768 971 m 1188 675 l 1189 675 l 1189 0 l 958 0 l 939 94 b 467 -14 800 35 636 -14 b 47 347 215 -14 47 83 b 583 722 47 632 265 722 b 1189 676 828 722 1032 697 m 310 357 b 518 203 310 244 367 203 b 926 272 639 203 778 229 l 926 493 b 557 511 810 504 674 511 b 310 357 393 511 310 468 "},"ā":{"ha":1254,"x_min":0,"x_max":0,"o":"m 1188 675 l 1189 675 l 1189 0 l 958 0 l 939 94 b 467 -14 800 35 636 -14 b 47 347 215 -14 47 83 b 453 717 47 592 207 692 l 453 740 l 1024 740 l 1024 697 b 1189 676 1083 690 1139 683 m 310 357 b 518 203 310 244 367 203 b 926 272 639 203 778 229 l 926 493 b 557 511 810 504 674 511 b 310 357 393 511 310 468 "},"ą":{"ha":1254,"x_min":0,"x_max":0,"o":"m 1188 675 l 1189 675 l 1189 0 l 1185 0 b 1025 -131 1114 -33 1025 -87 b 1064 -160 1025 -153 1042 -160 b 1210 -124 1103 -160 1164 -143 l 1249 -244 b 1032 -299 1189 -274 1119 -299 b 871 -183 925 -299 871 -258 b 1044 0 871 -110 963 -29 l 958 0 l 939 94 b 467 -14 800 35 636 -14 b 47 347 215 -14 47 83 b 583 722 47 632 265 722 b 1189 676 828 722 1032 697 m 310 357 b 518 203 310 244 367 203 b 926 272 639 203 778 229 l 926 493 b 557 511 810 504 674 511 b 310 357 393 511 310 468 "},"ç":{"ha":1179,"x_min":0,"x_max":0,"o":"m 47 356 b 649 726 47 614 226 726 b 1132 672 826 726 1003 703 l 1079 463 b 610 506 976 483 831 506 b 310 356 389 506 310 472 b 610 206 310 238 389 206 b 1079 249 831 206 976 228 l 1132 39 b 649 -15 1003 8 831 -15 b 47 356 226 -15 47 99 m 788 -57 l 788 -103 b 571 -297 788 -243 735 -297 b 385 -272 506 -297 428 -285 l 415 -136 b 553 -153 458 -144 513 -153 b 629 -92 604 -153 629 -142 l 629 -57 "},"ć":{"ha":1179,"x_min":0,"x_max":0,"o":"m 1024 1038 l 753 826 l 501 826 l 700 1038 m 47 356 b 649 726 47 614 226 726 b 1132 672 826 726 1003 703 l 1079 463 b 610 506 976 483 831 506 b 310 356 389 506 310 472 b 610 206 310 238 389 206 b 1079 249 831 206 976 228 l 1132 39 b 649 -15 1003 8 831 -15 b 47 356 226 -15 47 99 "},"č":{"ha":1179,"x_min":0,"x_max":0,"o":"m 756 825 l 518 825 l 289 1038 l 525 1038 l 638 940 l 750 1038 l 986 1038 m 47 356 b 649 726 47 614 226 726 b 1132 672 826 726 1003 703 l 1079 463 b 610 506 976 483 831 506 b 310 356 389 506 310 472 b 610 206 310 238 389 206 b 1079 249 831 206 976 228 l 1132 39 b 649 -15 1003 8 831 -15 b 47 356 226 -15 47 99 "},"ĉ":{"ha":1179,"x_min":0,"x_max":0,"o":"m 732 825 l 619 921 l 507 825 l 271 825 l 501 1038 l 739 1038 l 968 825 m 47 356 b 649 726 47 614 225 726 b 1132 672 826 726 1003 703 l 1079 463 b 608 506 976 483 831 506 b 308 356 389 506 308 472 b 608 206 308 238 389 206 b 1079 249 831 206 976 228 l 1132 39 b 649 -15 1003 8 829 -15 b 47 356 225 -15 47 99 "},"ċ":{"ha":1179,"x_min":0,"x_max":0,"o":"m 767 807 l 506 807 l 506 1024 l 767 1024 m 47 356 b 649 726 47 614 226 726 b 1132 672 826 726 1003 703 l 1079 463 b 610 506 976 483 831 506 b 310 356 389 506 310 472 b 610 206 310 238 389 206 b 1079 249 831 206 976 228 l 1132 39 b 649 -15 1003 8 831 -15 b 47 356 226 -15 47 99 "},"ď":{"ha":1264,"x_min":0,"x_max":0,"o":"m 1189 1042 l 1189 0 l 958 0 l 940 97 b 486 -14 806 38 650 -14 b 47 347 213 -14 47 79 b 564 722 47 628 257 722 b 926 688 700 722 822 707 l 926 1042 m 1358 810 l 1258 810 l 1258 1042 l 1488 1042 l 1488 785 b 1318 640 1488 694 1433 640 b 1239 649 1292 640 1264 643 l 1254 758 b 1308 754 1275 756 1292 754 b 1358 790 1349 754 1358 761 m 310 351 b 528 203 310 244 369 203 b 926 269 646 203 782 228 l 926 488 b 547 511 808 500 667 511 b 310 351 390 511 310 465 "},"đ":{"ha":1326,"x_min":0,"x_max":0,"o":"m 1189 1042 l 1189 949 l 1313 949 l 1313 813 l 1189 813 l 1189 0 l 958 0 l 940 97 b 486 -14 806 38 650 -14 b 47 347 213 -14 47 79 b 564 722 47 628 257 722 b 926 688 700 722 822 707 l 926 813 l 606 813 l 606 949 l 926 949 l 926 1042 m 310 351 b 528 203 310 244 369 203 b 926 269 646 203 782 228 l 926 488 b 547 511 808 500 667 511 b 310 351 390 511 310 465 "},"é":{"ha":1214,"x_min":0,"x_max":0,"o":"m 994 1038 l 724 826 l 472 826 l 671 1038 m 649 188 b 1097 224 860 188 1013 210 l 1150 35 b 625 -19 1018 1 807 -19 b 47 354 222 -19 47 90 b 608 726 47 617 244 726 b 1167 408 946 726 1167 639 b 1160 294 1167 375 1163 313 l 307 294 b 649 188 331 207 419 188 m 599 551 b 306 431 404 551 326 522 l 907 431 b 599 551 892 515 822 551 "},"ê":{"ha":1214,"x_min":0,"x_max":0,"o":"m 719 825 l 607 921 l 494 825 l 258 825 l 488 1038 l 726 1038 l 956 825 m 649 188 b 1097 224 860 188 1013 210 l 1150 35 b 625 -19 1018 1 807 -19 b 47 354 222 -19 47 90 b 608 726 47 617 244 726 b 1167 408 946 726 1167 639 b 1160 294 1167 375 1163 313 l 307 294 b 649 188 331 207 419 188 m 599 551 b 306 431 404 551 326 522 l 907 431 b 599 551 892 515 822 551 "},"ë":{"ha":1214,"x_min":0,"x_max":0,"o":"m 540 817 l 310 817 l 310 1032 l 540 1032 m 903 817 l 672 817 l 672 1032 l 903 1032 m 649 188 b 1097 224 860 188 1013 210 l 1150 35 b 625 -19 1018 1 807 -19 b 47 354 222 -19 47 90 b 608 726 47 617 244 726 b 1167 408 946 726 1167 639 b 1160 294 1167 375 1163 313 l 307 294 b 649 188 331 207 419 188 m 599 551 b 306 431 404 551 326 522 l 907 431 b 599 551 892 515 822 551 "},"è":{"ha":1214,"x_min":0,"x_max":0,"o":"m 211 1038 l 535 1038 l 732 826 l 479 826 m 649 188 b 1097 224 860 188 1013 210 l 1150 35 b 625 -19 1018 1 807 -19 b 47 354 222 -19 47 90 b 608 726 47 617 244 726 b 1167 408 946 726 1167 639 b 1160 294 1167 375 1163 313 l 307 294 b 649 188 331 207 419 188 m 599 551 b 306 431 404 551 326 522 l 907 431 b 599 551 892 515 822 551 "},"ĕ":{"ha":1214,"x_min":0,"x_max":0,"o":"m 908 1035 b 606 813 908 890 819 813 b 301 1035 393 813 301 890 l 494 1035 b 606 944 494 971 521 944 b 717 1035 690 944 717 971 m 649 188 b 1097 224 860 188 1013 210 l 1150 35 b 625 -19 1018 1 807 -19 b 47 354 222 -19 47 90 b 608 726 47 617 244 726 b 1167 408 946 726 1167 639 b 1160 294 1167 375 1163 313 l 307 294 b 649 188 331 207 419 188 m 599 551 b 306 431 404 551 326 522 l 907 431 b 599 551 892 515 822 551 "},"ě":{"ha":1214,"x_min":0,"x_max":0,"o":"m 726 825 l 489 825 l 260 1038 l 496 1038 l 608 940 l 721 1038 l 957 1038 m 649 188 b 1097 224 860 188 1013 210 l 1150 35 b 625 -19 1018 1 807 -19 b 47 354 222 -19 47 90 b 608 726 47 617 244 726 b 1167 408 946 726 1167 639 b 1160 294 1167 375 1163 313 l 307 294 b 649 188 331 207 419 188 m 599 551 b 306 431 404 551 326 522 l 907 431 b 599 551 892 515 822 551 "},"ė":{"ha":1214,"x_min":0,"x_max":0,"o":"m 738 807 l 476 807 l 476 1024 l 738 1024 m 649 188 b 1097 224 860 188 1013 210 l 1150 35 b 625 -19 1018 1 807 -19 b 47 354 222 -19 47 90 b 608 726 47 617 244 726 b 1167 408 946 726 1167 639 b 1160 294 1167 375 1163 313 l 307 294 b 649 188 331 207 419 188 m 599 551 b 306 431 404 551 326 522 l 907 431 b 599 551 892 515 822 551 "},"ē":{"ha":1214,"x_min":0,"x_max":0,"o":"m 322 854 l 322 1014 l 893 1014 l 893 854 m 649 188 b 1097 224 860 188 1013 210 l 1150 35 b 625 -19 1018 1 807 -19 b 47 354 222 -19 47 90 b 608 726 47 617 244 726 b 1167 408 946 726 1167 639 b 1160 294 1167 375 1163 313 l 307 294 b 649 188 331 207 419 188 m 599 551 b 306 431 404 551 326 522 l 907 431 b 599 551 892 515 822 551 "},"ę":{"ha":1214,"x_min":0,"x_max":0,"o":"m 649 188 b 1097 224 860 188 1013 210 l 1150 35 b 939 -1 1092 19 1018 8 b 781 -131 868 -35 781 -87 b 821 -160 781 -153 799 -160 b 967 -124 860 -160 921 -143 l 1004 -244 b 788 -299 946 -274 876 -299 b 628 -183 682 -299 628 -258 b 767 -15 628 -121 693 -53 b 625 -19 718 -18 671 -19 b 47 354 222 -19 47 90 b 608 726 47 617 244 726 b 1167 408 946 726 1167 639 b 1160 294 1167 375 1163 313 l 307 294 b 649 188 331 207 419 188 m 599 551 b 306 431 404 551 326 522 l 907 431 b 599 551 892 515 822 551 "},"ğ":{"ha":1257,"x_min":0,"x_max":0,"o":"m 936 1031 b 633 808 936 888 847 808 b 329 1031 421 808 329 888 l 522 1031 b 633 940 522 967 549 940 b 744 1031 718 940 744 967 m 1199 126 b 590 -271 1199 -154 1008 -271 b 90 -206 421 -271 238 -249 l 144 -11 b 607 -68 297 -49 450 -68 b 949 128 879 -68 956 1 b 499 56 817 85 658 56 b 47 382 208 56 47 144 b 593 722 47 640 258 722 b 1199 676 838 722 1042 697 l 1197 675 l 1199 675 m 310 382 b 518 257 310 294 367 257 b 936 299 640 257 786 268 l 936 493 b 557 511 817 503 676 511 b 310 382 393 511 310 476 "},"ĝ":{"ha":1257,"x_min":0,"x_max":0,"o":"m 747 821 l 635 917 l 522 821 l 286 821 l 517 1033 l 754 1033 l 983 821 m 1199 126 b 590 -271 1199 -154 1008 -271 b 90 -206 421 -271 238 -249 l 144 -11 b 607 -68 297 -49 450 -68 b 949 128 879 -68 956 1 b 499 56 817 85 658 56 b 47 382 208 56 47 144 b 593 722 47 640 258 722 b 1199 676 838 722 1042 697 l 1197 675 l 1199 675 m 310 382 b 518 257 310 294 367 257 b 936 299 640 257 786 268 l 936 493 b 557 511 817 503 676 511 b 310 382 393 511 310 476 "},"ģ":{"ha":1257,"x_min":0,"x_max":0,"o":"m 422 826 l 631 1038 l 881 1038 l 746 826 m 1199 126 b 590 -271 1199 -154 1008 -271 b 90 -206 421 -271 238 -249 l 144 -11 b 607 -68 297 -49 450 -68 b 949 128 879 -68 956 1 b 499 56 817 85 658 56 b 47 382 208 56 47 144 b 593 722 47 640 258 722 b 1199 676 838 722 1042 697 l 1197 675 l 1199 675 m 310 382 b 518 257 310 294 367 257 b 936 299 640 257 786 268 l 936 493 b 557 511 817 503 676 511 b 310 382 393 511 310 476 "},"ġ":{"ha":1257,"x_min":0,"x_max":0,"o":"m 767 803 l 504 803 l 504 1019 l 767 1019 m 1199 126 b 590 -271 1199 -154 1008 -271 b 90 -206 421 -271 238 -249 l 144 -11 b 607 -68 297 -49 450 -68 b 949 128 879 -68 956 1 b 499 56 817 85 658 56 b 47 382 208 56 47 144 b 593 722 47 640 258 722 b 1199 676 838 722 1042 697 l 1197 675 l 1199 675 m 310 382 b 518 257 310 294 367 257 b 936 299 640 257 786 268 l 936 493 b 557 511 817 503 676 511 b 310 382 393 511 310 476 "},"ħ":{"ha":1325,"x_min":0,"x_max":0,"o":"m 139 813 l 14 813 l 14 949 l 139 949 l 139 1042 l 400 1042 l 400 949 l 735 949 l 735 813 l 400 813 l 400 636 b 872 726 540 688 706 726 b 1268 393 1128 726 1268 629 l 1268 0 l 1006 0 l 1006 349 b 786 508 1006 457 932 508 b 400 446 679 508 549 485 l 400 0 l 139 0 "},"ĥ":{"ha":1261,"x_min":0,"x_max":0,"o":"m 533 1090 l 421 1188 l 308 1090 l 72 1090 l 301 1303 l 540 1303 l 769 1090 m 75 1042 l 338 1042 l 338 638 b 808 726 478 688 643 726 b 1204 393 1064 726 1204 629 l 1204 0 l 942 0 l 942 349 b 724 508 942 457 869 508 b 338 446 615 508 485 486 l 338 0 l 75 0 "},"í":{"ha":401,"x_min":0,"x_max":0,"o":"m 594 1038 l 324 826 l 71 826 l 269 1038 m 75 708 l 338 708 l 338 0 l 75 0 "},"î":{"ha":401,"x_min":0,"x_max":0,"o":"m 319 825 l 207 921 l 93 825 l -143 825 l 88 1038 l 325 1038 l 554 825 m 75 708 l 338 708 l 338 0 l 75 0 "},"ï":{"ha":401,"x_min":0,"x_max":0,"o":"m 139 817 l -92 817 l -92 1032 l 139 1032 m 501 817 l 272 817 l 272 1032 l 501 1032 m 75 708 l 338 708 l 338 0 l 75 0 "},"ì":{"ha":401,"x_min":0,"x_max":0,"o":"m -190 1038 l 135 1038 l 331 826 l 79 826 m 75 708 l 338 708 l 338 0 l 75 0 "},"ĭ":{"ha":401,"x_min":0,"x_max":0,"o":"m 508 1035 b 206 813 508 890 418 813 b -99 1035 -7 813 -99 890 l 94 1035 b 206 944 94 971 121 944 b 315 1035 290 944 315 971 m 75 708 l 338 708 l 338 0 l 75 0 "},"ī":{"ha":401,"x_min":0,"x_max":0,"o":"m -78 854 l -78 1014 l 492 1014 l 492 854 m 75 708 l 338 708 l 338 0 l 75 0 "},"į":{"ha":413,"x_min":0,"x_max":0,"o":"m 338 799 l 75 799 l 75 1015 l 338 1015 m 75 708 l 338 708 l 338 0 b 178 -131 267 -33 178 -87 b 218 -160 178 -153 194 -160 b 363 -124 256 -160 317 -143 l 401 -244 b 185 -299 342 -274 272 -299 b 25 -183 78 -299 25 -258 b 199 0 25 -110 115 -29 l 75 0 "},"ĩ":{"ha":401,"x_min":0,"x_max":0,"o":"m -71 978 b 76 1019 -36 997 17 1019 b 369 976 190 1019 283 976 b 499 1018 426 976 458 994 l 499 867 b 374 828 471 847 432 828 b 74 872 272 828 174 872 b -71 831 10 872 -31 856 m 75 708 l 338 708 l 338 0 l 75 0 "},"ĵ":{"ha":422,"x_min":0,"x_max":0,"o":"m 339 825 l 226 921 l 114 825 l -122 825 l 107 1038 l 344 1038 l 575 825 m -60 -253 b 75 138 -17 -194 75 -53 l 75 708 l 338 708 l 338 136 b 213 -253 338 -76 254 -199 "},"ĳ":{"ha":878,"x_min":0,"x_max":0,"o":"m 338 799 l 75 799 l 75 1015 l 338 1015 m 753 799 l 492 799 l 492 1015 l 753 1015 m 75 708 l 338 708 l 338 0 l 75 0 m 357 -253 b 492 138 399 -194 492 -53 l 492 708 l 753 708 l 753 136 b 629 -253 753 -76 671 -199 "},"ķ":{"ha":1200,"x_min":0,"x_max":0,"o":"m 338 481 l 542 481 l 858 708 l 1208 708 l 763 374 l 1226 0 l 874 0 l 538 267 l 338 267 l 338 0 l 75 0 l 75 1042 l 338 1042 m 747 -79 l 560 -290 l 350 -290 l 485 -79 "},"ĺ":{"ha":413,"x_min":0,"x_max":0,"o":"m 576 1297 l 319 1086 l 68 1086 l 251 1297 m 338 0 l 75 0 l 75 1042 l 338 1042 "},"ľ":{"ha":413,"x_min":0,"x_max":0,"o":"m 338 0 l 75 0 l 75 1042 l 338 1042 m 506 810 l 404 810 l 404 1042 l 633 1042 l 633 785 b 465 640 633 694 581 640 b 385 649 439 640 410 643 l 401 758 b 456 754 422 756 439 754 b 506 790 496 754 506 761 "},"ļ":{"ha":413,"x_min":0,"x_max":0,"o":"m 338 0 l 75 0 l 75 1042 l 338 1042 m 319 -79 l 132 -290 l -78 -290 l 57 -79 "},"ŀ":{"ha":661,"x_min":0,"x_max":0,"o":"m 338 0 l 75 0 l 75 1042 l 338 1042 m 668 379 l 406 379 l 406 596 l 668 596 "},"ñ":{"ha":1261,"x_min":0,"x_max":0,"o":"m 394 978 b 540 1019 428 997 482 1019 b 835 976 654 1019 747 976 b 963 1018 892 976 924 994 l 963 867 b 839 828 935 847 896 828 b 538 872 738 828 638 872 b 394 831 475 872 435 856 m 75 708 l 306 708 l 321 624 b 808 726 465 681 636 726 b 1204 393 1064 726 1204 629 l 1204 0 l 942 0 l 942 349 b 724 508 942 457 869 508 b 338 446 615 508 485 486 l 338 0 l 75 0 "},"ń":{"ha":1261,"x_min":0,"x_max":0,"o":"m 1058 1038 l 788 826 l 536 826 l 733 1038 m 75 708 l 306 708 l 321 624 b 808 726 465 681 636 726 b 1204 393 1064 726 1204 629 l 1204 0 l 942 0 l 942 349 b 724 508 942 457 869 508 b 338 446 615 508 485 486 l 338 0 l 75 0 "},"ň":{"ha":1261,"x_min":0,"x_max":0,"o":"m 790 825 l 553 825 l 324 1038 l 558 1038 l 672 940 l 785 1038 l 1021 1038 m 75 708 l 306 708 l 321 624 b 808 726 465 681 636 726 b 1204 393 1064 726 1204 629 l 1204 0 l 942 0 l 942 349 b 724 508 942 457 869 508 b 338 446 615 508 485 486 l 338 0 l 75 0 "},"ņ":{"ha":1261,"x_min":0,"x_max":0,"o":"m 75 708 l 306 708 l 321 624 b 808 726 465 681 636 726 b 1204 393 1064 726 1204 629 l 1204 0 l 942 0 l 942 349 b 724 508 942 457 869 508 b 338 446 615 508 485 486 l 338 0 l 75 0 m 794 -79 l 606 -290 l 396 -290 l 531 -79 "},"ó":{"ha":1336,"x_min":0,"x_max":0,"o":"m 1058 1038 l 786 826 l 535 826 l 733 1038 m 47 356 b 668 729 47 614 249 729 b 1289 356 1086 729 1289 614 b 668 -18 1289 97 1086 -18 b 47 356 249 -18 47 97 m 310 356 b 668 203 310 246 385 203 b 1026 356 951 203 1026 246 b 668 508 1026 465 951 508 b 310 356 385 508 310 465 "},"ô":{"ha":1336,"x_min":0,"x_max":0,"o":"m 782 825 l 669 921 l 557 825 l 321 825 l 551 1038 l 789 1038 l 1018 825 m 47 356 b 668 729 47 614 249 729 b 1289 356 1086 729 1289 614 b 668 -18 1289 97 1086 -18 b 47 356 249 -18 47 97 m 310 356 b 668 203 310 246 385 203 b 1026 356 951 203 1026 246 b 668 508 1026 465 951 508 b 310 356 385 508 310 465 "},"ö":{"ha":1336,"x_min":0,"x_max":0,"o":"m 603 817 l 372 817 l 372 1032 l 603 1032 m 965 817 l 736 817 l 736 1032 l 965 1032 m 47 356 b 668 729 47 614 249 729 b 1289 356 1086 729 1289 614 b 668 -18 1289 97 1086 -18 b 47 356 249 -18 47 97 m 310 356 b 668 203 310 246 385 203 b 1026 356 951 203 1026 246 b 668 508 1026 465 951 508 b 310 356 385 508 310 465 "},"ò":{"ha":1336,"x_min":0,"x_max":0,"o":"m 274 1038 l 599 1038 l 794 826 l 543 826 m 47 356 b 668 729 47 614 249 729 b 1289 356 1086 729 1289 614 b 668 -18 1289 97 1086 -18 b 47 356 249 -18 47 97 m 310 356 b 668 203 310 246 385 203 b 1026 356 951 203 1026 246 b 668 508 1026 465 951 508 b 310 356 385 508 310 465 "},"õ":{"ha":1336,"x_min":0,"x_max":0,"o":"m 392 974 b 539 1017 425 993 479 1017 b 832 972 651 1017 744 972 b 960 1014 889 972 921 992 l 960 863 b 836 824 932 843 893 824 b 535 869 735 824 635 869 b 392 828 472 869 432 851 m 47 356 b 668 729 47 614 249 729 b 1289 356 1086 729 1289 614 b 668 -18 1289 97 1086 -18 b 47 356 249 -18 47 97 m 310 356 b 668 203 310 246 385 203 b 1026 356 951 203 1026 246 b 668 508 1026 465 951 508 b 310 356 385 508 310 465 "},"ŏ":{"ha":1336,"x_min":0,"x_max":0,"o":"m 972 1035 b 669 813 972 890 882 813 b 365 1035 457 813 365 890 l 558 1035 b 669 944 558 971 585 944 b 779 1035 754 944 779 971 m 47 356 b 668 729 47 614 249 729 b 1289 356 1086 729 1289 614 b 668 -18 1289 97 1086 -18 b 47 356 249 -18 47 97 m 310 356 b 668 203 310 246 385 203 b 1026 356 951 203 1026 246 b 668 508 1026 465 951 508 b 310 356 385 508 310 465 "},"ő":{"ha":1336,"x_min":0,"x_max":0,"o":"m 781 1038 l 568 826 l 365 826 l 510 1038 m 1158 1038 l 915 826 l 713 826 l 886 1038 m 47 356 b 668 729 47 614 249 729 b 1289 356 1086 729 1289 614 b 668 -18 1289 97 1086 -18 b 47 356 249 -18 47 97 m 310 356 b 668 203 310 246 385 203 b 1026 356 951 203 1026 246 b 668 508 1026 465 951 508 b 310 356 385 508 310 465 "},"ō":{"ha":1336,"x_min":0,"x_max":0,"o":"m 386 850 l 386 1011 l 956 1011 l 956 850 m 47 356 b 668 729 47 614 249 729 b 1289 356 1086 729 1289 614 b 668 -18 1289 97 1086 -18 b 47 356 249 -18 47 97 m 310 356 b 668 203 310 246 385 203 b 1026 356 951 203 1026 246 b 668 508 1026 465 951 508 b 310 356 385 508 310 465 "},"ŕ":{"ha":881,"x_min":0,"x_max":0,"o":"m 869 1038 l 599 826 l 346 826 l 544 1038 m 75 708 l 306 708 l 326 588 b 847 726 471 663 651 726 l 847 490 b 338 408 649 490 500 467 l 338 0 l 75 0 "},"ř":{"ha":881,"x_min":0,"x_max":0,"o":"m 601 825 l 363 825 l 133 1038 l 369 1038 l 482 940 l 594 1038 l 831 1038 m 75 708 l 306 708 l 326 588 b 847 726 471 663 651 726 l 847 490 b 338 408 649 490 500 467 l 338 0 l 75 0 "},"ŗ":{"ha":881,"x_min":0,"x_max":0,"o":"m 75 708 l 306 708 l 326 588 b 847 726 471 663 651 726 l 847 490 b 338 408 649 490 500 467 l 338 0 l 75 0 m 318 -79 l 129 -290 l -81 -290 l 54 -79 "},"š":{"ha":1140,"x_min":0,"x_max":0,"o":"m 682 825 l 443 825 l 214 1038 l 450 1038 l 563 940 l 675 1038 l 911 1038 m 1108 201 b 604 -19 1108 28 951 -19 b 61 42 389 -19 172 14 l 106 211 b 651 156 229 185 438 156 b 864 203 815 156 864 164 b 718 257 864 244 825 250 l 372 276 b 47 508 133 289 47 354 b 575 729 47 689 233 729 b 1064 683 739 729 954 701 l 1025 513 b 514 558 879 539 690 558 b 292 511 339 558 292 550 b 400 463 292 471 328 467 l 746 442 b 1108 201 983 428 1108 371 "},"ś":{"ha":1140,"x_min":0,"x_max":0,"o":"m 950 1038 l 678 826 l 426 826 l 625 1038 m 1108 201 b 604 -19 1108 28 951 -19 b 61 42 389 -19 172 14 l 106 211 b 651 156 229 185 438 156 b 864 203 815 156 864 164 b 718 257 864 244 825 250 l 372 276 b 47 508 133 289 47 354 b 575 729 47 689 233 729 b 1064 683 739 729 954 701 l 1025 513 b 514 558 879 539 690 558 b 292 511 339 558 292 550 b 400 463 292 471 328 467 l 746 442 b 1108 201 983 428 1108 371 "},"ş":{"ha":1140,"x_min":0,"x_max":0,"o":"m 1108 201 b 604 -19 1108 28 951 -19 b 61 42 389 -19 172 14 l 106 211 b 651 156 229 185 438 156 b 864 203 815 156 864 164 b 718 257 864 244 825 250 l 372 276 b 47 508 133 289 47 354 b 575 729 47 689 233 729 b 1064 683 739 729 954 701 l 1025 513 b 514 558 879 539 690 558 b 292 511 339 558 292 550 b 400 463 292 471 328 467 l 746 442 b 1108 201 983 428 1108 371 m 708 -57 l 708 -103 b 492 -297 708 -243 654 -297 b 304 -272 425 -297 347 -285 l 336 -136 b 474 -153 378 -144 432 -153 b 549 -92 525 -153 549 -142 l 549 -57 "},"ŝ":{"ha":1140,"x_min":0,"x_max":0,"o":"m 674 825 l 561 921 l 449 825 l 213 825 l 443 1038 l 681 1038 l 910 825 m 1108 201 b 604 -19 1108 28 951 -19 b 61 42 389 -19 172 14 l 106 211 b 651 156 229 185 438 156 b 864 203 815 156 864 164 b 718 257 864 244 825 250 l 372 276 b 47 508 133 289 47 354 b 575 729 47 689 233 729 b 1064 683 739 729 954 701 l 1025 513 b 514 558 879 539 690 558 b 292 511 339 558 292 550 b 400 463 292 471 328 467 l 746 442 b 1108 201 983 428 1108 371 "},"ŧ":{"ha":1069,"x_min":0,"x_max":0,"o":"m 439 301 b 654 172 447 203 501 172 b 1004 214 789 172 900 193 l 1047 35 b 631 -19 935 7 785 -19 b 175 301 342 -19 188 65 l 22 301 l 22 453 l 174 453 l 174 557 l 22 557 l 22 708 l 181 708 l 226 892 l 438 892 l 438 708 l 990 708 l 990 557 l 438 557 l 438 453 l 990 453 l 990 301 "},"ť":{"ha":1053,"x_min":0,"x_max":0,"o":"m 635 956 l 533 956 l 533 1188 l 763 1188 l 763 929 b 594 785 763 840 710 785 b 514 794 567 785 539 789 l 531 903 b 585 899 551 901 568 899 b 635 935 624 899 635 907 m 164 497 l 13 497 l 13 708 l 171 708 l 217 892 l 428 892 l 428 708 l 981 708 l 981 497 l 428 497 l 428 361 b 644 203 428 238 478 203 b 988 243 779 203 883 222 l 1038 35 b 621 -19 925 7 775 -19 b 164 333 319 -19 164 74 "},"ú":{"ha":1256,"x_min":0,"x_max":0,"o":"m 1054 1038 l 783 826 l 531 826 l 729 1038 m 58 708 l 319 708 l 319 358 b 543 199 319 250 394 199 b 929 264 649 199 781 222 l 929 708 l 1190 708 l 1190 0 l 961 0 l 946 85 b 457 -19 800 28 629 -19 b 58 314 200 -19 58 78 "},"û":{"ha":1256,"x_min":0,"x_max":0,"o":"m 779 825 l 667 921 l 553 825 l 318 825 l 547 1038 l 785 1038 l 1015 825 m 58 708 l 319 708 l 319 358 b 543 199 319 250 394 199 b 929 264 649 199 781 222 l 929 708 l 1190 708 l 1190 0 l 961 0 l 946 85 b 457 -19 800 28 629 -19 b 58 314 200 -19 58 78 "},"ü":{"ha":1256,"x_min":0,"x_max":0,"o":"m 599 817 l 369 817 l 369 1032 l 599 1032 m 961 817 l 732 817 l 732 1032 l 961 1032 m 58 708 l 319 708 l 319 358 b 543 199 319 250 394 199 b 929 264 649 199 781 222 l 929 708 l 1190 708 l 1190 0 l 961 0 l 946 85 b 457 -19 800 28 629 -19 b 58 314 200 -19 58 78 "},"ù":{"ha":1256,"x_min":0,"x_max":0,"o":"m 269 1038 l 594 1038 l 790 826 l 539 826 m 58 708 l 319 708 l 319 358 b 543 199 319 250 394 199 b 929 264 649 199 781 222 l 929 708 l 1190 708 l 1190 0 l 961 0 l 946 85 b 457 -19 800 28 629 -19 b 58 314 200 -19 58 78 "},"ŭ":{"ha":1256,"x_min":0,"x_max":0,"o":"m 968 1035 b 665 813 968 890 878 813 b 361 1035 453 813 361 890 l 554 1035 b 665 944 554 971 581 944 b 775 1035 750 944 775 971 m 58 708 l 319 708 l 319 358 b 543 199 319 250 394 199 b 929 264 649 199 781 222 l 929 708 l 1190 708 l 1190 0 l 961 0 l 946 85 b 457 -19 800 28 629 -19 b 58 314 200 -19 58 78 "},"ű":{"ha":1256,"x_min":0,"x_max":0,"o":"m 778 1038 l 565 826 l 361 826 l 506 1038 m 1154 1038 l 913 826 l 708 826 l 882 1038 m 58 708 l 319 708 l 319 358 b 543 199 319 250 394 199 b 929 264 649 199 781 222 l 929 708 l 1190 708 l 1190 0 l 961 0 l 946 85 b 457 -19 800 28 629 -19 b 58 314 200 -19 58 78 "},"ū":{"ha":1256,"x_min":0,"x_max":0,"o":"m 382 854 l 382 1014 l 951 1014 l 951 854 m 58 708 l 319 708 l 319 358 b 543 199 319 250 394 199 b 929 264 649 199 781 222 l 929 708 l 1190 708 l 1190 0 l 961 0 l 946 85 b 457 -19 800 28 629 -19 b 58 314 200 -19 58 78 "},"ų":{"ha":1256,"x_min":0,"x_max":0,"o":"m 58 708 l 319 708 l 319 358 b 543 199 319 250 394 199 b 929 264 649 199 781 222 l 929 708 l 1190 708 l 1190 0 l 1192 0 b 1031 -131 1121 -33 1031 -87 b 1071 -160 1031 -153 1049 -160 b 1217 -124 1110 -160 1171 -143 l 1256 -244 b 1039 -299 1196 -274 1126 -299 b 878 -183 932 -299 878 -258 b 1051 0 878 -110 969 -29 l 961 0 l 946 85 b 457 -19 800 28 629 -19 b 58 314 200 -19 58 78 "},"ů":{"ha":1256,"x_min":0,"x_max":0,"o":"m 665 817 b 450 972 518 817 450 868 b 665 1124 450 1072 518 1124 b 879 972 813 1124 879 1072 b 665 817 879 868 813 817 m 569 972 b 665 913 569 933 588 913 b 760 972 743 913 760 933 b 665 1026 760 1007 743 1026 b 569 972 588 1026 569 1007 m 58 708 l 319 708 l 319 358 b 543 199 319 250 394 199 b 929 264 649 199 781 222 l 929 708 l 1190 708 l 1190 0 l 961 0 l 946 85 b 457 -19 800 28 629 -19 b 58 314 200 -19 58 78 "},"ũ":{"ha":1256,"x_min":0,"x_max":0,"o":"m 390 978 b 536 1019 424 997 476 1019 b 831 976 650 1019 743 976 b 958 1018 886 976 918 994 l 958 867 b 833 828 931 847 892 828 b 533 872 732 828 633 872 b 390 831 469 872 429 856 m 58 708 l 319 708 l 319 358 b 543 199 319 250 394 199 b 929 264 649 199 781 222 l 929 708 l 1190 708 l 1190 0 l 961 0 l 946 85 b 457 -19 800 28 629 -19 b 58 314 200 -19 58 78 "},"ẃ":{"ha":1894,"x_min":0,"x_max":0,"o":"m 1324 1038 l 1053 826 l 800 826 l 999 1038 m 1104 708 l 1378 214 l 1611 708 l 1889 708 l 1526 0 l 1224 0 l 933 518 l 643 0 l 342 0 l 4 708 l 278 708 l 506 217 l 774 708 "},"ŵ":{"ha":1894,"x_min":0,"x_max":0,"o":"m 1049 825 l 936 921 l 822 825 l 588 825 l 817 1038 l 1054 1038 l 1285 825 m 1104 708 l 1378 214 l 1611 708 l 1889 708 l 1526 0 l 1224 0 l 933 518 l 643 0 l 342 0 l 4 708 l 278 708 l 506 217 l 774 708 "},"ẅ":{"ha":1894,"x_min":0,"x_max":0,"o":"m 868 817 l 639 817 l 639 1032 l 868 1032 m 1231 817 l 1001 817 l 1001 1032 l 1231 1032 m 1104 708 l 1378 214 l 1611 708 l 1889 708 l 1526 0 l 1224 0 l 933 518 l 643 0 l 342 0 l 4 708 l 278 708 l 506 217 l 774 708 "},"ẁ":{"ha":1894,"x_min":0,"x_max":0,"o":"m 539 1038 l 864 1038 l 1060 826 l 808 826 m 1104 708 l 1378 214 l 1611 708 l 1889 708 l 1526 0 l 1224 0 l 933 518 l 643 0 l 342 0 l 4 708 l 278 708 l 506 217 l 774 708 "},"ý":{"ha":1279,"x_min":0,"x_max":0,"o":"m 1042 1038 l 771 826 l 519 826 l 717 1038 m 58 708 l 319 708 l 319 454 b 572 294 319 338 376 294 b 947 332 689 294 814 307 l 947 708 l 1210 708 l 1210 157 b 631 -271 1210 -165 1029 -271 b 111 -206 451 -271 251 -244 l 157 -6 b 649 -68 321 -46 482 -68 b 960 144 889 -68 971 -11 l 957 151 b 510 79 824 113 667 79 b 58 414 179 79 58 181 "},"ÿ":{"ha":1279,"x_min":0,"x_max":0,"o":"m 588 817 l 357 817 l 357 1032 l 588 1032 m 950 817 l 719 817 l 719 1032 l 950 1032 m 58 708 l 319 708 l 319 454 b 572 294 319 338 376 294 b 947 332 689 294 814 307 l 947 708 l 1210 708 l 1210 157 b 631 -271 1210 -165 1029 -271 b 111 -206 451 -271 251 -244 l 157 -6 b 649 -68 321 -46 482 -68 b 960 144 889 -68 971 -11 l 957 151 b 510 79 824 113 667 79 b 58 414 179 79 58 181 "},"ŷ":{"ha":1279,"x_min":0,"x_max":0,"o":"m 767 825 l 654 921 l 542 825 l 306 825 l 535 1038 l 774 1038 l 1003 825 m 58 708 l 319 708 l 319 454 b 572 294 319 338 376 294 b 947 332 689 294 814 307 l 947 708 l 1210 708 l 1210 157 b 631 -271 1210 -165 1029 -271 b 111 -206 451 -271 251 -244 l 157 -6 b 649 -68 321 -46 482 -68 b 960 144 889 -68 971 -11 l 957 151 b 510 79 824 113 667 79 b 58 414 179 79 58 181 "},"ỳ":{"ha":1279,"x_min":0,"x_max":0,"o":"m 257 1038 l 582 1038 l 779 826 l 526 826 m 58 708 l 319 708 l 319 454 b 572 294 319 338 376 294 b 947 332 689 294 814 307 l 947 708 l 1210 708 l 1210 157 b 631 -271 1210 -165 1029 -271 b 111 -206 451 -271 251 -244 l 157 -6 b 649 -68 321 -46 482 -68 b 960 144 889 -68 971 -11 l 957 151 b 510 79 824 113 667 79 b 58 414 179 79 58 181 "},"ž":{"ha":1197,"x_min":0,"x_max":0,"o":"m 726 825 l 489 825 l 260 1038 l 494 1038 l 608 940 l 721 1038 l 957 1038 m 1144 0 l 53 0 l 53 181 l 404 375 b 846 526 558 451 760 506 l 67 526 l 67 708 l 1144 708 l 1144 526 l 832 349 b 375 181 649 253 450 203 l 1144 181 "},"ź":{"ha":1197,"x_min":0,"x_max":0,"o":"m 994 1038 l 724 826 l 472 826 l 669 1038 m 1144 0 l 53 0 l 53 181 l 404 375 b 846 526 558 451 760 506 l 67 526 l 67 708 l 1144 708 l 1144 526 l 832 349 b 375 181 649 253 450 203 l 1144 181 "},"ż":{"ha":1197,"x_min":0,"x_max":0,"o":"m 738 807 l 475 807 l 475 1024 l 738 1024 m 1144 0 l 53 0 l 53 181 l 404 375 b 846 526 558 451 760 506 l 67 526 l 67 708 l 1144 708 l 1144 526 l 832 349 b 375 181 649 253 450 203 l 1144 181 "},"´":{"ha":665,"x_min":0,"x_max":0,"o":"m 675 1026 l 403 817 l 151 817 l 350 1026 "},"`":{"ha":665,"x_min":0,"x_max":0,"o":"m 85 1026 l 410 1026 l 607 817 l 354 817 "},"ˆ":{"ha":694,"x_min":0,"x_max":0,"o":"m 460 814 l 347 911 l 235 814 l -1 814 l 228 1026 l 465 1026 l 696 814 "},"ˇ":{"ha":694,"x_min":0,"x_max":0,"o":"m 465 814 l 228 814 l -1 1026 l 235 1026 l 347 931 l 460 1026 l 696 1026 "},"˜":{"ha":694,"x_min":0,"x_max":0,"o":"m 63 967 b 210 1010 97 988 150 1010 b 503 967 324 1010 417 967 b 632 1008 560 967 592 985 l 632 857 b 507 817 604 838 565 817 b 207 863 406 817 307 863 b 63 821 143 863 103 844 "},"¨":{"ha":715,"x_min":0,"x_max":0,"o":"m 290 807 l 61 807 l 61 1022 l 290 1022 m 654 807 l 424 807 l 424 1022 l 654 1022 "},"˚":{"ha":551,"x_min":0,"x_max":0,"o":"m 276 801 b 61 957 129 801 61 853 b 276 1108 61 1057 129 1108 b 490 957 424 1108 490 1057 b 276 801 490 853 424 801 m 181 957 b 276 899 181 918 200 899 b 371 957 354 899 371 918 b 276 1011 371 992 354 1011 b 181 957 200 1011 181 992 "},"¸":{"ha":525,"x_min":0,"x_max":0,"o":"m 464 -57 l 464 -103 b 247 -297 464 -243 411 -297 b 61 -272 182 -297 104 -285 l 93 -136 b 231 -153 135 -144 189 -153 b 306 -92 282 -153 306 -142 l 306 -57 "},"˝":{"ha":915,"x_min":0,"x_max":0,"o":"m 478 1026 l 264 817 l 61 817 l 206 1026 m 854 1026 l 611 817 l 408 817 l 582 1026 "},"˘":{"ha":729,"x_min":0,"x_max":0,"o":"m 668 1025 b 365 803 668 881 578 803 b 61 1025 153 803 61 881 l 254 1025 b 365 935 254 961 281 935 b 475 1025 450 935 475 961 "},"¯":{"ha":692,"x_min":0,"x_max":0,"o":"m 61 844 l 61 1004 l 631 1004 l 631 844 "},"˙":{"ha":415,"x_min":0,"x_max":0,"o":"m 339 797 l 76 797 l 76 1014 l 339 1014 "},"·":{"ha":394,"x_min":0,"x_max":0,"o":"m 333 367 l 61 367 l 61 644 l 333 644 "},"˛":{"ha":499,"x_min":0,"x_max":0,"o":"m 372 0 b 213 -131 301 -33 213 -87 b 253 -160 213 -153 229 -160 b 397 -124 290 -160 351 -143 l 436 -244 b 219 -299 376 -274 307 -299 b 60 -183 113 -299 60 -258 b 236 1 60 -110 150 -29 "},"̦":{"ha":525,"x_min":0,"x_max":0,"o":"m 471 -79 l 283 -290 l 74 -290 l 208 -79 "},"":{"ha":399,"x_min":0,"x_max":0,"o":"m 186 715 l 85 715 l 85 947 l 314 947 l 314 690 b 146 546 314 600 261 546 b 67 554 119 546 90 549 l 82 664 b 136 660 103 661 119 660 b 186 696 176 660 186 667 "},".":{"ha":394,"x_min":0,"x_max":0,"o":"m 333 0 l 61 0 l 61 278 l 333 278 "},",":{"ha":394,"x_min":0,"x_max":0,"o":"m 57 -62 b 121 -68 82 -65 103 -68 b 181 -24 168 -68 181 -58 l 181 0 l 61 0 l 61 278 l 333 278 l 333 -31 b 132 -203 333 -137 269 -203 b 39 -192 101 -203 67 -199 "},":":{"ha":414,"x_min":0,"x_max":0,"o":"m 343 431 l 71 431 l 71 708 l 343 708 m 343 0 l 71 0 l 71 278 l 343 278 "},";":{"ha":414,"x_min":0,"x_max":0,"o":"m 343 431 l 71 431 l 71 708 l 343 708 m 67 -62 b 131 -68 92 -65 113 -68 b 190 -24 179 -68 190 -58 l 190 0 l 71 0 l 71 278 l 343 278 l 343 -31 b 143 -203 343 -137 279 -203 b 49 -192 111 -203 78 -199 "},"…":{"ha":1178,"x_min":0,"x_max":0,"o":"m 333 0 l 61 0 l 61 278 l 333 278 m 725 0 l 453 0 l 453 278 l 725 278 m 1117 0 l 844 0 l 844 278 l 1117 278 "},"?":{"ha":1142,"x_min":0,"x_max":0,"o":"m 247 356 l 247 540 l 653 540 b 813 632 765 540 813 561 b 588 725 813 708 758 725 b 71 688 399 725 214 708 l 33 904 b 568 951 204 932 383 951 b 1094 653 953 951 1094 868 b 665 356 1094 461 971 356 m 515 0 l 243 0 l 243 257 l 515 257 "},"!":{"ha":397,"x_min":0,"x_max":0,"o":"m 303 344 l 94 344 l 61 676 l 61 947 l 336 947 l 336 676 m 333 0 l 63 0 l 63 278 l 333 278 "},"¿":{"ha":1142,"x_min":0,"x_max":0,"o":"m 626 708 l 899 708 l 899 440 l 626 440 m 894 342 l 894 167 l 489 167 b 329 75 376 167 329 147 b 554 -17 329 0 383 -17 b 1071 19 743 -17 928 0 l 1108 -196 b 574 -243 938 -225 758 -243 b 47 56 189 -243 47 -160 b 476 342 47 247 171 342 "},"¡":{"ha":397,"x_min":0,"x_max":0,"o":"m 63 708 l 335 708 l 335 431 l 63 431 m 94 364 l 303 364 l 336 32 l 336 -239 l 61 -239 l 61 32 "},"(":{"ha":653,"x_min":0,"x_max":0,"o":"m 561 976 b 371 399 465 831 371 651 b 561 -178 371 147 465 -32 l 392 -281 b 115 399 260 -121 115 129 b 392 1079 115 669 260 919 "},")":{"ha":653,"x_min":0,"x_max":0,"o":"m 281 399 b 92 976 281 651 188 831 l 261 1079 b 538 399 392 919 538 669 b 261 -281 538 129 392 -121 l 92 -178 b 281 399 188 -32 281 147 "},"{":{"ha":825,"x_min":0,"x_max":0,"o":"m 32 531 b 229 667 165 531 229 553 l 229 763 b 571 1056 229 958 349 1056 b 794 1033 658 1056 744 1044 l 764 815 b 614 832 714 824 658 832 b 465 710 514 832 465 804 l 465 603 b 294 407 465 496 418 424 b 465 211 418 390 465 318 l 465 103 b 614 -19 465 8 514 -19 b 764 -3 658 -19 714 -10 l 794 -221 b 571 -243 744 -229 658 -243 b 229 50 349 -243 229 -144 l 229 147 b 32 282 229 260 165 282 "},"}":{"ha":825,"x_min":0,"x_max":0,"o":"m 794 282 b 596 147 661 282 596 260 l 596 50 b 256 -243 596 -144 476 -243 b 32 -221 167 -243 81 -229 l 61 -3 b 213 -19 111 -10 167 -19 b 361 103 313 -19 361 8 l 361 211 b 532 407 361 318 408 390 b 361 603 408 424 361 496 l 361 710 b 213 832 361 804 313 832 b 61 815 167 832 111 824 l 32 1033 b 256 1056 81 1044 167 1056 b 596 763 476 1056 596 958 l 596 667 b 794 531 596 553 661 531 "},"[":{"ha":683,"x_min":0,"x_max":0,"o":"m 131 -228 l 131 1042 l 601 1042 l 601 849 l 367 849 l 367 -35 l 601 -35 l 601 -228 "},"]":{"ha":683,"x_min":0,"x_max":0,"o":"m 82 -228 l 82 -35 l 317 -35 l 317 849 l 82 849 l 82 1042 l 553 1042 l 553 -228 "},"/":{"ha":878,"x_min":0,"x_max":0,"o":"m 228 -229 l -3 -229 l 649 971 l 879 971 "},"\\":{"ha":878,"x_min":0,"x_max":0,"o":"m 649 -229 l -3 971 l 228 971 l 879 -229 "},"_":{"ha":1113,"x_min":0,"x_max":0,"o":"m 53 -215 l 53 -49 l 1060 -49 l 1060 -215 "},"-":{"ha":740,"x_min":0,"x_max":0,"o":"m 53 268 l 53 474 l 688 474 l 688 268 "},"–":{"ha":801,"x_min":0,"x_max":0,"o":"m 53 268 l 53 474 l 747 474 l 747 268 "},"—":{"ha":1496,"x_min":0,"x_max":0,"o":"m 53 268 l 53 474 l 1442 474 l 1442 268 "},"¦":{"ha":311,"x_min":0,"x_max":0,"o":"m 236 551 l 75 551 l 75 1024 l 236 1024 m 75 243 l 236 243 l 236 -229 l 75 -229 "},"|":{"ha":361,"x_min":0,"x_max":0,"o":"m 75 -229 l 75 1036 l 288 1036 l 288 -229 "},"«":{"ha":1146,"x_min":0,"x_max":0,"o":"m 51 239 l 51 481 l 560 726 l 560 511 l 242 360 l 560 208 l 560 -7 m 586 239 l 586 481 l 1096 726 l 1096 511 l 778 360 l 1096 208 l 1096 -7 "},"»":{"ha":1146,"x_min":0,"x_max":0,"o":"m 1096 481 l 1096 239 l 586 -7 l 586 208 l 904 360 l 586 511 l 586 726 m 560 481 l 560 239 l 51 -7 l 51 208 l 368 360 l 51 511 l 51 726 "},"‹":{"ha":611,"x_min":0,"x_max":0,"o":"m 51 239 l 51 481 l 560 726 l 560 511 l 242 360 l 560 208 l 560 -7 "},"›":{"ha":611,"x_min":0,"x_max":0,"o":"m 560 481 l 560 239 l 51 -7 l 51 208 l 368 360 l 51 511 l 51 726 "},"‚":{"ha":399,"x_min":0,"x_max":0,"o":"m 58 -62 b 121 -68 82 -65 103 -68 b 181 -24 169 -68 181 -58 l 181 0 l 61 0 l 61 278 l 333 278 l 333 -31 b 133 -203 333 -137 269 -203 b 39 -192 101 -203 68 -199 "},"„":{"ha":760,"x_min":0,"x_max":0,"o":"m 58 -62 b 121 -68 82 -65 103 -68 b 181 -24 169 -68 181 -58 l 181 0 l 61 0 l 61 278 l 333 278 l 333 -31 b 133 -203 333 -137 269 -203 b 39 -192 101 -203 68 -199 m 418 -62 b 482 -68 443 -65 464 -68 b 542 -24 529 -68 542 -58 l 542 0 l 422 0 l 422 278 l 694 278 l 694 -31 b 493 -203 694 -137 631 -203 b 400 -192 463 -203 429 -199 "},"‘":{"ha":399,"x_min":0,"x_max":0,"o":"m 340 921 b 278 926 317 924 296 926 b 217 883 229 926 217 918 l 217 858 l 338 858 l 338 582 l 65 582 l 65 890 b 265 1061 65 997 128 1061 b 360 1051 297 1061 331 1058 "},"“":{"ha":760,"x_min":0,"x_max":0,"o":"m 340 921 b 278 926 317 924 296 926 b 217 883 229 926 217 918 l 217 858 l 338 858 l 338 582 l 65 582 l 65 890 b 265 1061 65 997 128 1061 b 360 1051 297 1061 331 1058 m 701 921 b 638 926 678 924 657 926 b 578 883 590 926 578 918 l 578 858 l 697 858 l 697 582 l 426 582 l 426 890 b 626 1061 426 997 489 1061 b 719 1051 658 1061 692 1058 "},"’":{"ha":399,"x_min":0,"x_max":0,"o":"m 58 703 b 121 697 82 699 103 697 b 181 740 169 697 181 706 l 181 764 l 61 764 l 61 1042 l 333 1042 l 333 733 b 133 563 333 626 269 563 b 39 572 101 563 68 565 "},"”":{"ha":760,"x_min":0,"x_max":0,"o":"m 58 703 b 121 697 82 699 103 697 b 181 740 169 697 181 706 l 181 764 l 61 764 l 61 1042 l 333 1042 l 333 733 b 133 563 333 626 269 563 b 39 572 101 563 68 565 m 418 703 b 482 697 443 699 464 697 b 542 740 529 697 542 706 l 542 764 l 422 764 l 422 1042 l 694 1042 l 694 733 b 493 563 694 626 631 563 b 400 572 463 563 429 565 "},"'":{"ha":385,"x_min":0,"x_max":0,"o":"m 61 865 l 61 1042 l 324 1042 l 324 865 l 301 639 l 83 639 "},"\"":{"ha":751,"x_min":0,"x_max":0,"o":"m 61 865 l 61 1042 l 324 1042 l 324 865 l 301 639 l 83 639 m 428 865 l 428 1042 l 690 1042 l 690 865 l 668 639 l 450 639 "},"•":{"ha":618,"x_min":0,"x_max":0,"o":"m 310 257 b 75 433 143 257 75 307 b 310 608 75 557 143 608 b 543 433 476 608 543 557 b 310 257 543 307 476 257 "},"&":{"ha":1607,"x_min":0,"x_max":0,"o":"m 1392 379 l 1392 63 b 685 -18 1217 19 990 -18 b 67 251 208 -18 67 64 b 240 467 67 358 121 429 b 82 690 139 503 82 576 b 665 961 82 879 256 961 b 1299 910 903 961 1125 943 l 1256 683 b 675 719 1108 704 889 719 b 343 638 425 719 343 710 b 522 563 343 575 397 563 l 1572 563 l 1572 379 m 724 213 b 1156 244 903 213 1051 228 l 1156 379 l 528 379 b 331 300 379 379 331 363 b 724 213 331 231 394 213 "},"¶":{"ha":1357,"x_min":0,"x_max":0,"o":"m 51 700 b 515 964 51 893 204 964 b 939 947 672 964 839 956 l 939 0 l 768 0 l 768 436 b 488 425 682 429 594 425 b 51 700 210 425 51 500 m 1243 0 l 1072 0 l 1072 947 l 1243 947 "},"†":{"ha":1125,"x_min":0,"x_max":0,"o":"m 42 475 l 42 708 l 422 708 l 422 947 l 704 947 l 704 708 l 1083 708 l 1083 475 l 704 475 l 704 -232 l 422 -232 l 422 475 "},"‡":{"ha":1125,"x_min":0,"x_max":0,"o":"m 42 7 l 42 240 l 422 240 l 422 475 l 42 475 l 42 708 l 422 708 l 422 947 l 704 947 l 704 708 l 1083 708 l 1083 475 l 704 475 l 704 240 l 1083 240 l 1083 7 l 704 7 l 704 -232 l 422 -232 l 422 7 "},"§":{"ha":1156,"x_min":0,"x_max":0,"o":"m 581 -15 b 92 28 417 -15 201 10 l 131 222 b 642 171 276 196 465 171 b 864 228 815 171 864 181 b 756 281 864 268 828 275 l 324 313 b 47 464 143 326 47 357 b 235 608 47 554 124 593 b 47 769 122 624 47 676 b 575 963 47 917 224 963 b 1064 919 739 963 954 938 l 1025 725 b 504 776 878 753 683 776 b 292 719 339 776 292 767 b 400 667 292 679 328 672 l 832 635 b 1108 489 1013 621 1108 593 b 921 339 1108 394 1033 353 b 1108 178 1033 324 1108 271 b 581 -15 1108 31 932 -15 m 744 399 b 883 461 844 392 883 408 b 757 522 883 504 846 515 l 410 547 b 272 486 311 554 272 539 b 399 424 272 442 308 431 "},"*":{"ha":819,"x_min":0,"x_max":0,"o":"m 319 653 l 160 671 l 42 710 l 96 879 l 215 840 l 356 760 l 322 918 l 322 1042 l 500 1042 l 500 917 l 467 760 l 606 840 l 724 879 l 779 710 l 660 671 l 501 654 l 619 546 l 693 444 l 549 340 l 476 442 l 411 589 l 343 440 l 271 340 l 128 444 l 200 547 "},"™":{"ha":2919,"x_min":0,"x_max":0,"o":"m 1343 406 l 1343 947 l 1715 947 l 2094 592 l 2474 947 l 2844 947 l 2844 406 l 2556 406 l 2556 708 l 2240 406 l 1949 406 l 1632 708 l 1632 406 m 44 724 l 44 947 l 1215 947 l 1215 724 l 775 724 l 775 406 l 485 406 l 485 724 "},"®":{"ha":1667,"x_min":0,"x_max":0,"o":"m 833 965 b 1588 453 1368 965 1588 796 b 833 -60 1588 111 1368 -60 b 79 454 301 -60 79 111 b 833 965 79 796 301 965 m 833 75 b 1438 453 1301 75 1438 178 b 833 831 1438 728 1301 831 b 229 454 368 831 229 728 b 833 75 229 178 368 75 m 658 181 l 464 181 l 464 722 l 969 722 b 1250 531 1161 722 1250 685 b 1003 353 1250 394 1153 353 l 1094 288 l 1236 181 l 997 181 l 794 346 l 658 346 m 658 582 l 658 456 l 963 456 b 1057 519 1031 456 1057 472 b 963 582 1057 567 1031 582 "},"©":{"ha":1667,"x_min":0,"x_max":0,"o":"m 833 965 b 1588 453 1368 965 1588 796 b 833 -60 1588 111 1368 -60 b 79 454 301 -60 79 111 b 833 965 79 796 301 965 m 833 75 b 1438 453 1301 75 1438 197 b 833 831 1438 708 1301 831 b 229 454 368 831 229 708 b 833 75 229 197 368 75 m 1219 529 b 828 560 1126 547 972 560 b 554 451 613 560 554 535 b 828 344 554 368 613 344 b 1219 375 972 344 1126 357 l 1244 224 b 828 179 1121 197 965 179 b 357 451 483 179 357 260 b 828 724 357 644 483 724 b 1244 681 965 724 1121 706 l 1219 529 "},"@":{"ha":1981,"x_min":0,"x_max":0,"o":"m 1386 -275 b 925 -332 1243 -314 1090 -332 b 57 326 358 -332 57 -104 b 999 982 57 792 456 982 b 1924 385 1506 982 1924 836 b 1576 3 1924 140 1803 3 b 1283 119 1433 3 1335 43 b 817 1 1151 56 988 1 b 426 313 592 1 426 93 b 911 640 426 558 622 640 b 1475 594 1138 640 1322 618 l 1475 328 b 1604 185 1475 222 1517 185 b 1728 375 1697 185 1728 240 b 988 800 1728 638 1553 800 b 253 328 479 800 253 626 b 908 -151 253 22 438 -151 b 1356 -92 1069 -151 1224 -128 l 1386 -275 m 1242 436 b 888 453 1135 446 1004 453 b 660 321 733 453 660 413 b 851 194 660 231 718 194 b 1242 260 964 194 1099 217 b 1242 276 1242 265 1242 271 "},"ª":{"ha":981,"x_min":0,"x_max":0,"o":"m 722 508 b 385 432 619 465 501 432 b 57 693 188 432 57 501 b 456 963 57 899 219 963 b 913 921 633 963 789 942 l 913 443 l 735 443 m 439 807 b 256 697 324 807 256 785 b 419 592 256 614 313 592 b 713 636 503 592 604 606 l 713 789 b 439 807 625 800 525 807 "},"º":{"ha":953,"x_min":0,"x_max":0,"o":"m 896 692 b 478 422 896 501 746 422 b 57 692 208 422 57 501 b 478 961 57 882 208 961 b 896 692 746 961 896 882 m 697 690 b 478 807 697 776 643 807 b 256 690 313 807 256 775 b 476 576 256 607 311 576 b 697 690 642 576 697 607 "},"#":{"ha":1589,"x_min":0,"x_max":0,"o":"m 371 346 l 424 561 l 151 561 l 189 715 l 461 715 l 508 906 l 713 906 l 665 715 l 1050 715 l 1097 906 l 1301 906 l 1254 715 l 1528 715 l 1490 561 l 1217 561 l 1164 346 l 1438 346 l 1400 192 l 1126 192 l 1079 0 l 875 0 l 922 192 l 538 192 l 490 0 l 286 0 l 333 192 l 61 192 l 99 346 m 960 346 l 1013 561 l 628 561 l 575 346 "},"€":{"ha":1599,"x_min":0,"x_max":0,"o":"m 171 472 b 171 497 171 481 171 489 l 4 497 l 4 650 l 197 650 b 885 961 265 854 472 961 b 1551 893 1114 961 1357 939 l 1506 679 b 894 740 1343 711 1114 740 b 510 650 685 740 569 711 l 1107 650 l 1107 497 l 453 497 b 453 472 453 489 453 481 b 453 446 453 463 453 454 l 1107 446 l 1107 292 l 511 292 b 894 204 572 232 688 204 b 1506 264 1114 204 1343 233 l 1551 50 b 885 -18 1357 4 1114 -18 b 197 292 474 -18 267 89 l 4 292 l 4 446 l 171 446 b 171 472 171 454 171 464 "},"$":{"ha":1429,"x_min":0,"x_max":0,"o":"m 806 958 b 1314 896 967 950 1167 928 l 1269 683 b 806 736 1149 707 982 728 l 806 583 l 965 574 b 1361 268 1238 560 1361 464 b 806 -19 1361 76 1233 -12 l 806 -149 l 614 -149 l 614 -15 b 75 56 417 -6 214 22 l 115 282 b 614 210 258 251 424 224 l 614 371 l 463 379 b 60 664 167 393 60 488 b 614 961 60 865 226 953 l 614 1086 l 806 1086 m 614 594 l 614 742 b 326 671 365 742 326 729 b 449 604 326 618 364 611 m 806 360 l 806 203 b 831 203 814 203 822 203 b 1094 276 1053 203 1094 219 b 985 349 1094 336 1060 342 "},"¥":{"ha":1571,"x_min":0,"x_max":0,"o":"m 925 108 l 925 0 l 643 0 l 643 108 l 185 108 l 185 271 l 643 271 l 643 343 l 185 343 l 185 506 l 476 506 l 1 947 l 363 947 l 788 564 l 1213 947 l 1568 947 l 1093 506 l 1386 506 l 1386 343 l 925 343 l 925 271 l 1386 271 l 1386 108 "},"£":{"ha":1636,"x_min":0,"x_max":0,"o":"m 51 210 b 242 260 107 236 171 251 l 242 378 l 51 378 l 51 550 l 244 550 b 935 951 269 815 474 951 b 1565 879 1154 951 1376 924 l 1514 646 b 944 711 1363 675 1156 711 b 529 550 668 711 556 665 l 1315 550 l 1315 378 l 524 378 l 524 258 b 1157 203 732 242 956 203 b 1517 257 1306 203 1414 229 l 1578 39 b 1161 -29 1475 -6 1326 -29 b 367 38 894 -29 608 38 b 51 -19 244 38 153 18 "},"¢":{"ha":1174,"x_min":0,"x_max":0,"o":"m 47 421 b 542 789 47 656 196 771 l 542 947 l 733 947 l 733 790 b 1132 736 882 783 1024 761 l 1079 526 b 733 567 997 543 888 561 l 733 272 b 1079 313 888 278 997 296 l 1132 103 b 733 50 1024 76 883 56 l 733 -108 l 542 -108 l 542 51 b 47 421 196 69 47 186 m 310 421 b 542 271 310 315 372 278 l 542 568 b 310 421 372 561 310 524 "},"ƒ":{"ha":1378,"x_min":0,"x_max":0,"o":"m 547 315 l 188 315 l 225 526 l 585 526 l 618 711 b 1118 1061 663 964 828 1061 b 1497 1031 1256 1061 1397 1046 l 1450 829 b 1121 857 1358 843 1218 857 b 879 682 965 857 903 814 l 851 526 l 1257 526 l 1219 315 l 814 315 l 772 81 b 268 -269 729 -168 561 -269 b -107 -239 132 -269 -7 -254 l -60 -37 b 276 -67 33 -53 157 -67 b 511 108 426 -67 489 -17 "},"¤":{"ha":1204,"x_min":0,"x_max":0,"o":"m 118 418 b 268 671 118 533 164 619 l 119 811 l 340 811 l 438 719 b 604 731 486 726 542 731 b 767 721 664 731 718 726 l 864 811 l 1085 811 l 936 672 b 1088 418 1042 619 1088 533 b 936 165 1088 304 1042 218 l 1085 25 l 872 25 l 775 118 b 604 106 725 110 668 106 b 428 118 538 106 479 110 l 331 25 l 119 25 l 268 165 b 118 418 164 218 118 306 m 865 418 b 606 558 865 518 792 558 b 342 418 418 558 342 518 b 603 278 342 318 418 278 b 865 418 790 278 865 318 "},"°":{"ha":946,"x_min":0,"x_max":0,"o":"m 475 967 b 894 688 751 967 894 886 b 475 404 894 489 751 404 b 51 688 197 404 51 489 b 475 967 51 886 197 967 m 264 688 b 474 575 264 599 325 575 b 682 688 624 575 682 599 b 474 799 682 775 624 799 b 264 688 326 799 264 775 "},"%":{"ha":1792,"x_min":0,"x_max":0,"o":"m 53 743 b 407 967 53 906 176 967 b 760 743 639 967 760 906 b 407 519 760 583 639 519 b 53 743 176 519 53 583 m 254 0 l 1263 947 l 1508 947 l 499 0 m 599 743 b 407 826 599 804 560 826 b 214 743 254 826 214 804 b 407 661 214 681 254 661 b 599 743 560 661 599 681 m 1029 219 b 1383 444 1029 382 1153 444 b 1736 219 1615 444 1736 382 b 1383 -4 1736 60 1615 -4 b 1029 219 1153 -4 1029 60 m 1575 219 b 1383 303 1575 282 1536 303 b 1190 219 1231 303 1190 282 b 1383 138 1190 157 1231 138 b 1575 219 1536 138 1575 157 "},"‰":{"ha":2564,"x_min":0,"x_max":0,"o":"m 53 743 b 407 967 53 906 176 967 b 760 743 639 967 760 906 b 407 519 760 583 639 519 b 53 743 176 519 53 583 m 260 0 l 1268 947 l 1513 947 l 504 0 m 599 743 b 407 826 599 804 560 826 b 214 743 254 826 214 804 b 407 661 214 681 254 661 b 599 743 560 661 599 681 m 1806 214 b 2160 439 1806 376 1929 439 b 2513 214 2392 439 2513 376 b 2160 -10 2513 54 2392 -10 b 1806 214 1929 -10 1806 54 m 1019 210 b 1374 435 1019 372 1143 435 b 1726 210 1604 435 1726 372 b 1374 -14 1726 50 1604 -14 b 1019 210 1143 -14 1019 50 m 2351 214 b 2160 297 2351 276 2313 297 b 1967 214 2007 297 1967 276 b 2160 132 1967 151 2007 132 b 2351 214 2313 132 2351 151 m 1565 210 b 1374 293 1565 272 1526 293 b 1181 210 1221 293 1181 272 b 1374 128 1181 147 1221 128 b 1565 210 1526 128 1565 147 "},"⁄":{"ha":365,"x_min":0,"x_max":0,"o":"m -444 0 l 564 947 l 810 947 l -199 0 "},"⁰":{"ha":814,"x_min":0,"x_max":0,"o":"m 53 743 b 407 967 53 906 176 967 b 760 743 639 967 760 906 b 407 519 760 583 639 519 b 53 743 176 519 53 583 m 599 743 b 407 826 599 804 560 826 b 214 743 254 826 214 804 b 407 661 214 681 254 661 b 599 743 560 661 599 681 "},"¹":{"ha":482,"x_min":0,"x_max":0,"o":"m 265 524 l 265 753 b 267 797 265 768 265 783 l 64 747 l 64 883 l 275 947 l 418 947 l 418 524 "},"²":{"ha":786,"x_min":0,"x_max":0,"o":"m 318 632 b 563 644 399 640 471 644 l 721 644 l 721 531 l 92 531 l 92 664 l 451 753 b 550 817 533 776 550 786 b 433 861 550 853 513 861 b 104 829 319 861 189 843 l 101 938 b 440 967 194 956 322 967 b 717 828 633 967 717 921 b 482 675 717 732 640 711 "},"³":{"ha":782,"x_min":0,"x_max":0,"o":"m 381 521 b 92 547 275 521 178 531 l 94 653 b 382 628 169 639 271 628 b 563 665 536 628 563 636 b 489 699 563 690 547 699 l 188 699 l 188 794 l 486 794 b 560 828 544 794 560 804 b 385 860 560 851 532 860 b 107 836 269 860 178 849 l 106 940 b 404 967 193 958 300 967 b 701 840 624 967 701 924 b 640 749 701 799 681 768 b 704 651 683 726 704 693 b 381 521 704 564 636 521 "},"⁴":{"ha":817,"x_min":0,"x_max":0,"o":"m 519 494 l 519 563 l 49 563 l 49 664 l 519 918 l 668 918 l 668 672 l 778 672 l 778 563 l 668 563 l 668 494 m 226 656 b 436 672 288 667 379 672 l 519 672 l 519 783 l 417 732 b 226 660 333 699 271 674 "},"½":{"ha":1664,"x_min":0,"x_max":0,"o":"m 265 524 l 265 753 b 267 797 265 768 265 783 l 64 747 l 64 883 l 275 947 l 418 947 l 418 524 m 86 0 l 1096 947 l 1340 947 l 332 0 m 1197 101 b 1443 114 1279 110 1350 114 l 1600 114 l 1600 0 l 972 0 l 972 133 l 1331 222 b 1429 286 1414 246 1429 257 b 1313 331 1429 322 1393 331 b 983 299 1200 331 1069 313 l 982 407 b 1321 436 1075 425 1203 436 b 1597 297 1514 436 1597 390 b 1363 144 1597 201 1521 181 "},"¼":{"ha":1611,"x_min":0,"x_max":0,"o":"m 265 524 l 265 753 b 267 797 265 768 265 783 l 64 747 l 64 883 l 275 947 l 418 947 l 418 524 m 86 0 l 1096 947 l 1340 947 l 332 0 m 1290 0 l 1290 68 l 819 68 l 819 169 l 1290 424 l 1439 424 l 1439 178 l 1549 178 l 1549 68 l 1439 68 l 1439 0 m 997 163 b 1207 178 1058 172 1150 178 l 1290 178 l 1290 289 l 1188 238 b 997 165 1104 204 1042 179 "},"¾":{"ha":1808,"x_min":0,"x_max":0,"o":"m 381 521 b 92 547 275 521 178 531 l 94 653 b 382 628 169 639 271 628 b 563 665 536 628 563 636 b 489 699 563 690 547 699 l 188 699 l 188 794 l 486 794 b 560 828 544 794 560 804 b 385 860 560 851 532 860 b 107 836 269 860 178 849 l 106 940 b 404 967 193 958 300 967 b 701 840 624 967 701 924 b 640 749 701 799 681 768 b 704 651 683 726 704 693 b 381 521 704 564 636 521 m 283 0 l 1292 947 l 1538 947 l 528 0 m 1486 0 l 1486 68 l 1017 68 l 1017 169 l 1486 424 l 1635 424 l 1635 178 l 1744 178 l 1744 68 l 1635 68 l 1635 0 m 1194 163 b 1404 178 1254 172 1346 178 l 1486 178 l 1486 289 l 1385 238 b 1194 165 1300 204 1238 179 "},"+":{"ha":1049,"x_min":0,"x_max":0,"o":"m 418 353 l 81 353 l 81 554 l 418 554 l 418 746 l 629 746 l 629 554 l 968 554 l 968 353 l 629 353 l 629 161 l 418 161 "},"−":{"ha":1049,"x_min":0,"x_max":0,"o":"m 81 358 l 81 560 l 968 560 l 968 358 "},"×":{"ha":1028,"x_min":0,"x_max":0,"o":"m 878 131 l 513 346 l 149 131 l 51 303 l 325 454 l 51 607 l 149 779 l 514 563 l 878 779 l 976 607 l 701 454 l 976 303 "},"÷":{"ha":989,"x_min":0,"x_max":0,"o":"m 626 660 l 354 660 l 354 938 l 626 938 m 51 358 l 51 560 l 938 560 l 938 358 m 626 -21 l 354 -21 l 354 257 l 626 257 "},"=":{"ha":1039,"x_min":0,"x_max":0,"o":"m 61 517 l 61 717 l 978 717 l 978 517 m 61 190 l 61 392 l 978 392 l 978 190 "},"¬":{"ha":989,"x_min":0,"x_max":0,"o":"m 681 439 l 51 439 l 51 660 l 938 660 l 938 203 l 681 203 "},"~":{"ha":1074,"x_min":0,"x_max":0,"o":"m 747 324 b 328 390 590 324 496 390 b 107 322 257 390 183 365 l 42 492 b 325 599 124 561 210 599 b 744 532 478 599 586 532 b 965 601 817 532 889 558 l 1032 432 b 747 324 951 363 863 324 "},"<":{"ha":1010,"x_min":0,"x_max":0,"o":"m 61 317 l 61 599 l 949 840 l 949 606 l 300 458 l 949 310 l 949 75 "},">":{"ha":1010,"x_min":0,"x_max":0,"o":"m 949 599 l 949 317 l 61 75 l 61 310 l 710 458 l 61 606 l 61 840 "},"±":{"ha":1049,"x_min":0,"x_max":0,"o":"m 81 63 l 81 264 l 418 264 l 418 440 l 81 440 l 81 642 l 418 642 l 418 833 l 629 833 l 629 642 l 968 642 l 968 440 l 629 440 l 629 264 l 968 264 l 968 63 "},"^":{"ha":1029,"x_min":0,"x_max":0,"o":"m 675 906 l 964 238 l 694 238 l 515 690 l 335 238 l 65 238 l 356 906 "},"≠":{"ha":1039,"x_min":0,"x_max":0,"o":"m 454 190 l 389 75 l 224 75 l 289 190 l 61 190 l 61 392 l 401 392 l 472 517 l 61 517 l 61 717 l 585 717 l 650 832 l 814 832 l 749 717 l 978 717 l 978 517 l 638 517 l 567 392 l 978 392 l 978 190 "},"≈":{"ha":1056,"x_min":0,"x_max":0,"o":"m 322 567 b 86 500 244 567 174 551 l 81 703 b 331 775 151 749 233 775 b 740 693 483 775 574 693 b 969 774 818 693 889 722 l 975 581 b 740 494 908 532 833 494 b 322 567 558 494 476 567 m 322 254 b 86 168 244 254 174 226 l 81 371 b 331 453 151 417 233 453 b 750 382 483 453 583 382 b 969 451 828 382 879 400 l 975 249 b 750 172 908 200 843 172 b 322 254 568 172 497 254 "},"≤":{"ha":1010,"x_min":0,"x_max":0,"o":"m 61 407 l 61 688 l 949 881 l 949 656 l 268 549 l 949 440 l 949 215 m 61 8 l 61 210 l 949 210 l 949 8 "},"≥":{"ha":1010,"x_min":0,"x_max":0,"o":"m 949 407 l 61 215 l 61 440 l 742 549 l 61 656 l 61 881 l 949 688 m 949 8 l 61 8 l 61 210 l 949 210 "},"∞":{"ha":1375,"x_min":0,"x_max":0,"o":"m 340 139 b 51 432 172 139 51 239 b 343 725 51 626 181 725 b 688 553 496 725 599 643 b 1031 725 778 642 882 725 b 1324 432 1194 725 1324 626 b 1035 139 1324 239 1203 139 b 686 299 878 139 771 214 b 340 139 599 214 492 139 m 1006 546 b 807 426 932 546 871 493 b 1015 321 869 367 932 321 b 1128 433 1083 321 1128 354 b 1006 546 1128 511 1079 546 m 360 321 b 565 428 438 321 501 367 b 368 544 503 493 444 544 b 247 432 296 544 247 510 b 360 321 247 353 292 321 "},"◊":{"ha":1129,"x_min":0,"x_max":0,"o":"m 1090 360 l 657 0 l 474 0 l 39 360 l 39 546 l 474 906 l 657 906 l 1090 546 m 269 453 l 565 203 l 860 453 l 565 703 "},"√":{"ha":1214,"x_min":0,"x_max":0,"o":"m 683 0 l 415 0 l 253 318 l 36 318 l 36 531 l 393 531 l 547 225 l 929 943 l 1188 943 "},"∫":{"ha":1157,"x_min":0,"x_max":0,"o":"m 925 857 b 710 682 765 857 710 813 l 710 8 b 219 -361 710 -253 528 -361 b -86 -329 103 -361 -4 -343 l -36 -135 b 232 -158 43 -146 122 -158 b 447 18 392 -158 447 -114 l 447 692 b 938 1061 447 953 629 1061 b 1243 1029 1054 1061 1161 1043 l 1193 835 b 925 857 1114 846 1035 857 "},"∂":{"ha":1354,"x_min":0,"x_max":0,"o":"m 1285 499 b 624 -14 1285 157 1025 -14 b 60 339 265 -14 60 85 b 535 646 60 574 256 646 b 1024 549 735 646 901 600 b 621 793 1010 708 889 793 b 311 756 515 793 414 778 l 272 983 b 657 1029 386 1011 518 1029 b 1285 499 1140 1029 1285 789 m 321 354 b 625 203 321 247 396 203 b 1018 432 856 203 988 268 b 560 497 888 467 711 497 b 321 354 400 497 321 458 "},"∏":{"ha":1724,"x_min":0,"x_max":0,"o":"m 213 0 l 213 694 l 42 694 l 42 936 l 1683 936 l 1683 694 l 1501 694 l 1501 0 l 1219 0 l 1219 694 l 494 694 l 494 0 "},"π":{"ha":1624,"x_min":0,"x_max":0,"o":"m 243 0 l 243 497 l 58 497 l 58 708 l 1532 708 l 1532 497 l 1338 497 l 1338 289 b 1443 193 1338 221 1367 193 b 1533 200 1482 193 1515 197 l 1554 -3 b 1389 -18 1519 -10 1460 -18 b 1076 263 1169 -18 1076 61 l 1076 497 l 504 497 l 504 0 "},"∑":{"ha":1435,"x_min":0,"x_max":0,"o":"m 1378 -250 l 61 -250 l 61 38 l 925 365 l 61 631 l 61 947 l 1378 947 l 1378 726 l 376 726 l 1128 461 l 1128 265 l 385 -29 l 1378 -29 "},"Ǽ":{"ha":2493,"x_min":0,"x_max":0,"o":"m 1785 1221 l 1528 1011 l 1276 1011 l 1460 1221 m -17 0 l 1058 947 l 2432 947 l 2432 726 l 1494 726 l 1494 569 l 2404 569 l 2406 388 l 1496 388 l 1496 221 l 2432 221 l 2432 0 l 1214 0 l 1214 183 l 565 183 l 354 0 m 786 379 l 1214 379 l 1214 750 "},"Ẽ":{"ha":1400,"x_min":0,"x_max":0,"o":"m 490 1161 b 638 1204 525 1182 578 1204 b 931 1161 751 1204 843 1161 b 1058 1203 988 1161 1019 1179 l 1058 1051 b 935 1011 1031 1032 992 1011 b 633 1057 833 1011 733 1057 b 490 1015 571 1057 531 1039 m 75 0 l 75 947 l 1339 947 l 1339 726 l 357 726 l 357 569 l 1313 569 l 1313 388 l 357 388 l 357 221 l 1339 221 l 1339 0 "},"Ș":{"ha":1406,"x_min":0,"x_max":0,"o":"m 1353 269 b 749 -18 1353 69 1217 -18 b 68 57 513 -18 239 15 l 108 283 b 824 203 303 240 539 203 b 1086 278 1046 203 1086 221 b 978 350 1086 336 1051 343 l 454 381 b 53 665 160 394 53 489 b 678 964 53 878 239 964 b 1307 897 846 964 1119 938 l 1261 685 b 613 743 1100 717 850 743 b 319 672 357 743 319 729 b 442 606 319 619 356 611 l 958 575 b 1353 269 1231 560 1353 465 m 808 -93 l 621 -304 l 411 -304 l 546 -93 "},"Ţ":{"ha":1464,"x_min":0,"x_max":0,"o":"m 29 706 l 29 947 l 1435 947 l 1435 706 l 874 706 l 874 0 l 592 0 l 592 706 m 851 -57 l 851 -103 b 636 -297 851 -243 799 -297 b 449 -272 569 -297 492 -285 l 481 -136 b 618 -153 522 -144 576 -153 b 693 -92 669 -153 693 -142 l 693 -57 "},"Ț":{"ha":1464,"x_min":0,"x_max":0,"o":"m 29 706 l 29 947 l 1435 947 l 1435 706 l 874 706 l 874 0 l 592 0 l 592 706 m 857 -79 l 668 -290 l 458 -290 l 593 -79 "},"Ỹ":{"ha":1571,"x_min":0,"x_max":0,"o":"m 510 1161 b 657 1204 544 1182 597 1204 b 950 1161 771 1204 863 1161 b 1078 1203 1007 1161 1039 1179 l 1078 1051 b 954 1011 1051 1032 1011 1011 b 653 1057 853 1011 754 1057 b 510 1015 590 1057 550 1039 m 1 947 l 363 947 l 788 564 l 1213 947 l 1568 947 l 925 350 l 925 0 l 643 0 l 643 351 "},"ǽ":{"ha":2078,"x_min":0,"x_max":0,"o":"m 1438 1033 l 1165 822 l 914 822 l 1113 1033 m 1513 188 b 1961 224 1724 188 1876 210 l 2014 35 b 1489 -19 1881 1 1671 -19 b 982 126 1232 -19 1068 25 b 414 -19 851 50 654 -19 b 56 196 186 -19 56 43 b 518 415 56 356 201 415 l 904 415 b 567 511 883 482 806 511 b 143 467 401 511 243 489 l 106 678 b 599 726 229 704 422 726 b 1044 632 821 726 961 697 b 1472 726 1139 697 1283 726 b 2031 408 1810 726 2031 639 b 2024 294 2031 375 2026 313 l 1171 294 b 1513 188 1194 207 1283 188 m 1463 551 b 1169 431 1268 551 1190 522 l 1771 431 b 1463 551 1756 515 1686 551 m 307 222 b 453 164 307 176 342 164 b 919 261 667 164 794 208 b 917 281 918 268 917 274 l 464 278 b 307 222 351 278 307 269 "},"ẽ":{"ha":1214,"x_min":0,"x_max":0,"o":"m 331 974 b 476 1017 364 993 418 1017 b 771 972 590 1017 683 972 b 899 1014 828 972 858 992 l 899 863 b 774 824 871 843 832 824 b 474 869 672 824 574 869 b 331 828 410 869 369 851 m 649 188 b 1097 224 860 188 1013 210 l 1150 35 b 625 -19 1018 1 807 -19 b 47 354 222 -19 47 90 b 608 726 47 617 244 726 b 1167 408 946 726 1167 639 b 1160 294 1167 375 1163 313 l 307 294 b 649 188 331 207 419 188 m 599 551 b 306 431 404 551 326 522 l 907 431 b 599 551 892 515 822 551 "},"ș":{"ha":1140,"x_min":0,"x_max":0,"o":"m 1108 201 b 604 -19 1108 28 951 -19 b 61 42 389 -19 172 14 l 106 211 b 651 156 229 185 438 156 b 864 203 815 156 864 164 b 718 257 864 244 825 250 l 372 276 b 47 508 133 289 47 354 b 575 729 47 689 233 729 b 1064 683 739 729 954 701 l 1025 513 b 514 558 879 539 690 558 b 292 511 339 558 292 550 b 400 463 292 471 328 467 l 746 442 b 1108 201 983 428 1108 371 m 674 -79 l 485 -290 l 275 -290 l 411 -79 "},"ţ":{"ha":1053,"x_min":0,"x_max":0,"o":"m 164 497 l 13 497 l 13 708 l 171 708 l 217 892 l 428 892 l 428 708 l 981 708 l 981 497 l 428 497 l 428 361 b 644 203 428 238 478 203 b 988 243 779 203 883 222 l 1038 35 b 621 -19 925 7 775 -19 b 164 333 319 -19 164 74 m 711 -57 l 711 -103 b 494 -297 711 -243 658 -297 b 308 -272 429 -297 351 -285 l 339 -136 b 478 -153 382 -144 436 -153 b 553 -92 529 -153 553 -142 l 553 -57 "},"ț":{"ha":1053,"x_min":0,"x_max":0,"o":"m 164 497 l 13 497 l 13 708 l 171 708 l 217 892 l 428 892 l 428 708 l 981 708 l 981 497 l 428 497 l 428 361 b 644 203 428 238 478 203 b 988 243 779 203 883 222 l 1038 35 b 621 -19 925 7 775 -19 b 164 333 319 -19 164 74 m 694 -79 l 507 -290 l 297 -290 l 432 -79 "},"ỹ":{"ha":1285,"x_min":0,"x_max":0,"o":"m 375 974 b 522 1017 410 993 463 1017 b 817 972 636 1017 729 972 b 944 1014 872 972 904 992 l 944 863 b 819 824 917 843 878 824 b 519 869 718 824 619 869 b 375 828 456 869 415 851 m 58 708 l 319 708 l 319 454 b 572 294 319 338 376 294 b 947 332 689 294 814 307 l 947 708 l 1210 708 l 1210 157 b 631 -271 1210 -165 1029 -271 b 111 -206 451 -271 251 -244 l 157 -6 b 649 -68 321 -46 482 -68 b 960 144 889 -68 971 -11 l 957 151 b 510 79 824 113 667 79 b 58 414 179 79 58 181 "},"­":{"ha":740,"x_min":0,"x_max":0,"o":"m 53 268 l 53 474 l 688 474 l 688 268 "},"∕":{"ha":629,"x_min":0,"x_max":0,"o":"m -312 0 l 696 947 l 942 947 l -68 0 "},"ℓ":{"ha":932,"x_min":0,"x_max":0,"o":"m 296 317 b 450 224 301 247 342 224 b 696 256 547 224 644 242 l 739 25 b 446 -18 672 3 565 -18 b 33 331 165 -18 33 89 l 33 524 b 496 954 33 772 157 954 b 826 731 732 954 826 867 b 653 486 826 617 761 536 m 294 454 l 508 556 b 593 650 567 583 593 610 b 479 725 593 699 567 725 b 294 556 354 725 294 669 "}}}
